<?xml version="1.0" encoding="UTF-8" standalone="no"?>
<!-- Created with Inkscape (http://www.inkscape.org/) -->

<svg
   version="1.1"
   id="svg1"
   width="858.47046"
   height="253.70135"
   viewBox="0 0 858.47046 253.70135"
   sodipodi:docname="ChatGPT Image Apr 14, 2026, 11_59_55 AM.png"
   xmlns:inkscape="http://www.inkscape.org/namespaces/inkscape"
   xmlns:sodipodi="http://sodipodi.sourceforge.net/DTD/sodipodi-0.dtd"
   xmlns="http://www.w3.org/2000/svg"
   xmlns:svg="http://www.w3.org/2000/svg">
  <defs
     id="defs1" />
  <sodipodi:namedview
     id="namedview1"
     pagecolor="#ffffff"
     bordercolor="#000000"
     borderopacity="0.25"
     inkscape:showpageshadow="2"
     inkscape:pageopacity="0.0"
     inkscape:pagecheckerboard="0"
     inkscape:deskcolor="#d1d1d1">
    <inkscape:page
       x="0"
       y="0"
       width="858.47046"
       height="253.70135"
       id="page2"
       margin="0"
       bleed="0" />
  </sodipodi:namedview>
  <g
     inkscape:groupmode="layer"
     inkscape:label="Image"
     id="g1"
     transform="translate(-1160.1694,-10.970869)">
    <path
       style="fill:#000000"
       d="m 1171.9047,225.32161 v -29 h 15 15 v 14.5 14.5 h 34.3334 c 18.8833,0 34.5208,-0.18687 34.75,-0.41527 0.2291,-0.22839 0.2896,-12.15339 0.1343,-26.5 l -0.2824,-26.08473 h -10.9676 -10.9677 v -13.5 -13.5 h -23.5 -23.5 v -14 -14 h -15 -15 v -48 -48 h 65 65 v 24 24 h -15.5 -15.5 v -12.75 -12.75 h -33.967 -33.967 l -0.283,24.16752 c -0.1556,13.29214 -0.058,24.15135 0.217,24.13158 0.275,-0.0198 4.8875,0.0173 10.25,0.0825 l 9.75,0.1184 v 13 13 h 25 25 v 12.5 12.5 h 14.5 14.5 v 55.5 55.5 h -65 -65 z m 152,-87.5 v -116.5 h 60.5 60.5 v 116.5 116.5 h -60.5 -60.5 z m 92.0031,14.75 c 0,-40.0125 0.2975,-80.5125 0.6574,-90 l 0.6543,-17.25 h -33.6574 -33.6574 v 11.5 c 0,7 0.3913,11.5 1,11.5 0.6582,0 1,26.83333 1,78.5 v 78.5 h 32 32 z m 51.9969,-14.75 v -116.5 h 20.5 20.5 l -10e-4,102.25 -10e-4,102.25 23.0212,-0.5 23.0211,-0.5 -0.029,-101.75 -0.029,-101.75 56.7592,-6e-5 56.7592,-7e-5 -0.2593,102.00007 -0.2597,102.00006 h 28.509 28.5093 v 14.5 14.5 h -49 -49 v -105 -105 h -15.5 -15.5 v 105 105 h -64 -64 z m 279,48.5 v -68 h 32 32 v -13 -13 h 11 11 v -24 -24 h -30.5 -30.5 v 12.5 12.5 h -12.5 -12.5 v -24 -24 h 55 55 v 61.5 61.5 h -42.5 -42.5 v 40.5 40.5 h 19.5 c 14.9055,0 19.5124,-0.29453 19.5524,-1.25 0.029,-0.6875 0.01,-6.9875 -0.049,-14 l -0.1016,-12.75 h 23.049 23.0492 v 28.5 28.5 h -55 -55 z m 131,39.5 v -28.5 h 19 19 v 14 14 h 27 27 v -40.5 -40.5 h -13.5 -13.5 v -12.5 -12.5 h 13.5 13.5 v -37.5 -37.5 h -27 -27 v 12.5 12.5 h -19 -19 v -24 -24 h 64.5 64.5 v 49 49 h -11 -11 v 12 12 h 11 11 v 55.5 55.5 h -64.5 -64.5 z m -180,-49 v -19.5 h 13.5 13.5 v 19.5 19.5 h -13.5 -13.5 z m 180,-71.5 v -13 h 19 19 v 13 13 h -19 -19 z"
       id="path1-9" />
  </g>
</svg>
