<?xml version="1.0" encoding="UTF-8" standalone="no"?>
<!-- Created with Inkscape (http://www.inkscape.org/) -->

<svg
   version="1.1"
   id="svg1"
   width="1024"
   height="1024"
   viewBox="0 0 1024 1024"
   sodipodi:docname="ChatGPT Image Apr 14, 2026, 11_59_55 AM.png"
   xmlns:inkscape="http://www.inkscape.org/namespaces/inkscape"
   xmlns:sodipodi="http://sodipodi.sourceforge.net/DTD/sodipodi-0.dtd"
   xmlns="http://www.w3.org/2000/svg"
   xmlns:svg="http://www.w3.org/2000/svg">
  <defs
     id="defs1" />
  <sodipodi:namedview
     id="namedview1"
     pagecolor="#ffffff"
     bordercolor="#000000"
     borderopacity="0.25"
     inkscape:showpageshadow="2"
     inkscape:pageopacity="0.0"
     inkscape:pagecheckerboard="0"
     inkscape:deskcolor="#d1d1d1">
    <inkscape:page
       x="0"
       y="0"
       width="1024"
       height="1024"
       id="page1"
       margin="0"
       bleed="0"
       inkscape:export-filename="soul23_logo.svg"
       inkscape:export-xdpi="96"
       inkscape:export-ydpi="96" />
  </sodipodi:namedview>
  <g
     inkscape:groupmode="layer"
     inkscape:label="Image"
     id="g1">
    <path
       style="fill:#000000"
       d="m 91.628641,580.17247 v -29 h 14.999999 15 v 14.5 14.5 h 34.33333 c 18.88334,0 34.52084,-0.18687 34.75,-0.41527 0.22917,-0.22839 0.28959,-12.15339 0.13428,-26.5 l -0.2824,-26.08473 h -10.9676 -10.96761 v -13.5 -13.5 h -23.5 -23.5 v -14 -14 h -15 -14.999999 v -48 -48 h 64.999999 65 v 24 24 h -15.5 -15.5 v -12.75 -12.75 H 156.6616 122.69457 l -0.28297,24.16752 c -0.15563,13.29214 -0.058,24.15135 0.21704,24.13158 0.275,-0.0198 4.8875,0.0173 10.25,0.0825 l 9.75,0.1184 v 13 13 h 25 25 v 12.5 12.5 h 14.5 14.5 v 55.5 55.5 h -65 -64.999999 z m 151.999999,-87.5 v -116.5 h 60.5 60.5 v 116.5 116.5 h -60.5 -60.5 z m 92.00306,14.75 c 0.002,-40.0125 0.29751,-80.5125 0.6574,-90 l 0.65434,-17.25 h -33.6574 -33.6574 v 11.5 c 0,7 0.3913,11.5 1,11.5 0.65817,0 1,26.83333 1,78.5 v 78.5 h 32 32 z m 51.99694,-14.75 v -116.5 h 20.5 20.5 l -0.001,102.25 -10e-4,102.25 23.02112,-0.5 23.02112,-0.5 -0.0292,-101.75 -0.0292,-101.75 56.75923,-6e-5 56.75923,-7e-5 -0.25936,102.00007 -0.25967,102.00006 h 28.50937 28.50936 v 14.5 14.5 h -49 -49 v -105 -105 h -15.5 -15.5 v 105 105 h -64 -64 z m 279,48.5 v -68 h 32 32 v -13 -13 h 11 11 v -24 -24 h -30.5 -30.5 v 12.5 12.5 h -12.5 -12.5 v -24 -24 h 55 55 v 61.5 61.5 h -42.5 -42.5 v 40.5 40.5 h 19.5 c 14.90541,0 19.51234,-0.29453 19.55236,-1.25 0.0288,-0.6875 0.007,-6.9875 -0.0492,-14 l -0.10156,-12.75 h 23.0492 23.0492 v 28.5 28.5 h -55 -55 z m 131,39.5 v -28.5 h 19 19 v 14 14 h 27 27 v -40.5 -40.5 h -13.5 -13.5 v -12.5 -12.5 h 13.5 13.5 v -37.5 -37.5 h -27 -27 v 12.5 12.5 h -19 -19 v -24 -24 h 64.5 64.5 v 49 49 h -11 -11 v 12 12 h 11 11 v 55.5 55.5 h -64.5 -64.5 z m -180,-49 v -19.5 h 13.5 13.5 v 19.5 19.5 h -13.5 -13.5 z m 180,-71.5 v -13 h 19 19 v 13 13 h -19 -19 z"
       id="path1" />
  </g>
</svg>
