<?xml version="1.0" encoding="UTF-8" standalone="no"?>
<svg
   version="1.0"
   width="912.830890pt"
   height="464.648148pt"
   viewBox="0 0 912.830890 464.648148"
   preserveAspectRatio="xMidYMid meet"
   id="svg18"
   sodipodi:docname="limpio_fresco.svg"
   inkscape:export-filename="limpio_fresco_blk.png"
   inkscape:export-xdpi="96"
   inkscape:export-ydpi="96"
   inkscape:version="1.4.2 (ebf0e940, 2025-05-08)"
   xmlns:inkscape="http://www.inkscape.org/namespaces/inkscape"
   xmlns:sodipodi="http://sodipodi.sourceforge.net/DTD/sodipodi-0.dtd"
   xmlns="http://www.w3.org/2000/svg"
   xmlns:svg="http://www.w3.org/2000/svg">
  <defs
     id="defs18" />
  <sodipodi:namedview
     id="namedview18"
     pagecolor="#ffffff"
     bordercolor="#000000"
     borderopacity="0.25"
     inkscape:showpageshadow="2"
     inkscape:pageopacity="0.0"
     inkscape:pagecheckerboard="0"
     inkscape:deskcolor="#d1d1d1"
     inkscape:document-units="pt"
     inkscape:zoom="0.67147581"
     inkscape:cx="591.97963"
     inkscape:cy="227.85631"
     inkscape:window-width="1512"
     inkscape:window-height="949"
     inkscape:window-x="0"
     inkscape:window-y="33"
     inkscape:window-maximized="0"
     inkscape:current-layer="svg18">
    <inkscape:page
       x="0"
       y="0"
       width="912.83093"
       height="464.64816"
       id="page36"
       margin="0"
       bleed="0" />
  </sodipodi:namedview>
  <metadata
     id="metadata1">
Created by potrace 1.12, written by Peter Selinger 2001-2015
</metadata>
  <g
     id="g36">
    <rect
       style="fill:#ffffff;stroke-width:0.75"
       id="rect18"
       width="762.94464"
       height="82.138969"
       x="23.693932"
       y="259.05365" />
    <rect
       style="fill:#ffffff;stroke-width:0.75"
       id="rect19"
       width="721.87512"
       height="67.922607"
       x="55.285843"
       y="331.71506" />
    <rect
       style="fill:#ffffff;stroke-width:0.75"
       id="rect20"
       width="593.92792"
       height="47.387863"
       x="45.80827"
       y="394.8989" />
    <rect
       style="fill:#ffffff;stroke-width:0.75"
       id="rect21"
       width="325.39667"
       height="180.0739"
       x="396.47845"
       y="110.57169" />
    <rect
       style="fill:#ffffff;stroke-width:0.75"
       id="rect22"
       width="157.95955"
       height="105.8329"
       x="421.75201"
       y="64.763412" />
    <rect
       style="fill:#ffffff;stroke-width:0.75"
       id="rect23"
       width="82.138969"
       height="91.616539"
       x="554.43799"
       y="18.955147" />
    <rect
       style="fill:#ffffff;stroke-width:0.75"
       id="rect24"
       width="60.024628"
       height="88.457352"
       x="622.3606"
       y="44.228676" />
    <rect
       style="fill:#ffffff;stroke-width:0.75"
       id="rect25"
       width="55.285843"
       height="56.86544"
       x="665.0097"
       y="80.559372" />
    <rect
       style="fill:#ffffff;stroke-width:0.75"
       id="rect26"
       width="74.241013"
       height="127.94723"
       x="813.4917"
       y="195.86984" />
    <rect
       style="fill:#ffffff;stroke-width:0.75"
       id="rect27"
       width="48.967461"
       height="97.934921"
       x="818.23047"
       y="303.28235" />
    <rect
       style="fill:#ffffff;stroke-width:0.75"
       id="rect28"
       width="12.439314"
       height="14.018911"
       x="328.95074"
       y="192.5132" />
    <rect
       style="fill:#ffffff;stroke-width:0.75"
       id="rect29"
       width="16.585754"
       height="12.044416"
       x="334.67682"
       y="198.63414" />
    <rect
       style="fill:#ffffff;stroke-width:0.75"
       id="rect30"
       width="17.573013"
       height="9.2801294"
       x="331.12271"
       y="195.86984" />
    <rect
       style="fill:#ffffff;stroke-width:0.75"
       id="rect31"
       width="20.732191"
       height="19.942392"
       x="249.37863"
       y="179.28409" />
    <rect
       style="fill:#ffffff;stroke-width:0.75"
       id="rect32"
       width="14.216348"
       height="10.662262"
       x="261.42307"
       y="184.81268" />
    <rect
       style="fill:#ffffff;stroke-width:0.75"
       id="rect33"
       width="53.508789"
       height="16.980658"
       x="136.63501"
       y="179.08664" />
    <rect
       style="fill:#ffffff;stroke-width:0.75"
       id="rect34"
       width="42.254181"
       height="14.413809"
       x="136.24011"
       y="172.37335" />
    <rect
       style="fill:#ffffff;stroke-width:0.75"
       id="rect35"
       width="15.203608"
       height="11.452064"
       x="87.075203"
       y="207.32193" />
    <rect
       style="fill:#ffffff;stroke-width:0.75"
       id="rect36"
       width="26.655674"
       height="11.452066"
       x="68.317505"
       y="201.99078" />
  </g>
  <g
     transform="matrix(0.1,0,0,-0.1,-13.024085,495.85941)"
     fill="#000000"
     stroke="none"
     id="g18"
     style="display:inline;fill:#000000;fill-opacity:1">
    <path
       d="M 5506,4944 C 5067,4885 4659,4682 4344,4366 3985,4005 3780,3548 3751,3043 l -6,-113 -44,35 c -147,117 -309,114 -369,-7 -21,-41 -22,-51 -12,-88 6,-22 27,-59 47,-81 l 36,-40 -98,3 -97,3 -18,47 c -51,134 -222,318 -357,385 -69,34 -85,38 -153,38 -57,-1 -85,-6 -116,-22 -82,-44 -125,-124 -105,-198 25,-92 114,-156 251,-180 87,-15 139,-34 159,-58 12,-16 1,-17 -144,-17 h -158 l -70,57 c -84,67 -139,116 -268,235 -183,169 -319,258 -442,289 -27,6 -82,10 -128,7 -188,-11 -309,-139 -285,-301 14,-89 81,-150 180,-162 132,-16 172,-36 195,-97 l 11,-28 h -211 -210 l -80,72 c -102,93 -180,144 -248,164 -147,43 -278,-35 -268,-159 6,-74 61,-117 150,-117 35,0 35,-13 -1,-29 -45,-21 -121,-83 -157,-130 -30,-38 -45,-47 -122,-73 -140,-47 -218,-93 -309,-183 -122,-120 -174,-239 -174,-395 1,-91 12,-145 48,-219 69,-144 259,-261 424,-261 32,0 48,-4 48,-12 0,-7 -14,-92 -32,-189 l -32,-176 -49,-29 C 472,975 414,911 382,842 360,795 356,770 355,700 c 0,-73 4,-94 28,-145 87,-187 310,-280 554,-229 42,8 107,29 144,46 l 68,30 103,-26 c 190,-47 285,-60 443,-60 138,0 156,2 230,28 44,15 97,38 117,52 l 38,24 h 2208 c 2448,0 2257,-5 2340,66 22,19 52,57 66,86 23,46 26,64 26,155 v 102 l 518,3 517,3 64,33 c 102,54 160,123 218,261 l 19,43 32,-85 c 76,-199 183,-283 395,-308 127,-15 246,-1 329,38 87,41 122,74 159,149 31,63 32,69 35,212 2,138 9,188 124,832 66,377 124,726 127,777 7,103 -7,194 -39,258 -81,162 -218,246 -404,249 -85,1 -94,-1 -165,-36 -43,-22 -107,-67 -154,-109 -112,-100 -181,-152 -245,-184 -128,-65 -273,-105 -378,-105 h -57 l -2,118 c -19,1008 -792,1856 -1798,1972 -122,14 -388,11 -509,-6 z m 766,-420 c 35,-21 65,-38 67,-40 2,-2 -17,-40 -43,-85 -26,-44 -45,-87 -42,-94 6,-16 108,-75 129,-75 8,0 36,35 62,80 26,44 51,80 57,80 7,0 141,-73 156,-86 2,-1 -62,-127 -143,-278 -80,-152 -149,-293 -152,-313 -4,-29 -20,-53 -66,-100 -34,-35 -65,-63 -68,-63 -7,0 -325,379 -342,407 -8,12 38,114 75,165 11,15 69,54 136,89 117,62 134,75 129,94 -7,22 -46,14 -116,-25 -41,-22 -77,-40 -81,-40 -9,0 162,319 172,320 4,0 35,-16 70,-36 z m 152,-86 26,-11 -32,-56 c -44,-80 -48,-83 -77,-62 -26,20 -25,23 26,104 26,42 24,41 57,25 z m 434,-245 c 76,-42 139,-78 141,-79 2,-2 -18,-40 -44,-85 l -48,-83 24,-19 c 37,-30 114,-66 126,-59 5,4 29,40 52,80 23,39 45,72 48,72 6,0 134,-68 142,-76 2,-1 -34,-74 -80,-160 -94,-175 -85,-172 -111,-29 -11,60 -16,70 -35,73 -29,4 -30,-14 -2,-168 l 20,-115 -91,-170 c -51,-93 -218,-406 -372,-695 -154,-289 -289,-538 -298,-554 l -18,-29 -106,325 c -58,178 -106,332 -106,341 0,8 25,74 56,146 54,126 59,133 119,180 59,47 112,104 150,164 17,27 17,28 -11,63 -56,71 -55,61 -13,158 21,49 41,91 44,94 2,3 11,-1 20,-8 18,-15 45,-6 45,15 0,8 -20,35 -45,58 -32,31 -45,52 -45,71 0,28 278,565 293,566 5,0 70,-34 145,-77 z M 5078,3985 c -22,-72 -42,-132 -44,-133 -4,-5 -204,159 -204,167 0,6 281,100 287,96 1,0 -16,-59 -39,-130 z m 130,112 c 42,-44 55,-95 60,-229 5,-152 1,-178 -32,-178 -28,0 -152,107 -149,129 3,29 88,301 94,301 3,0 15,-10 27,-23 z m 1877,-31 c 19,-13 18,-15 -5,-59 -43,-80 -45,-82 -75,-63 l -26,17 33,59 c 34,63 43,68 73,46 z m -1350,-71 c 22,-3 49,-14 60,-23 12,-9 108,-123 215,-252 106,-129 211,-256 233,-283 l 40,-47 -38,-56 c -21,-30 -59,-73 -84,-95 -46,-39 -153,-99 -177,-99 -9,0 -49,110 -112,302 -77,236 -102,304 -116,306 -10,2 -22,0 -27,-5 -6,-6 28,-126 90,-314 55,-167 186,-567 291,-889 129,-395 189,-590 183,-599 -5,-8 -19,-21 -31,-29 -21,-13 -23,-10 -84,112 -51,102 -67,126 -84,126 -19,0 -22,-7 -27,-82 -4,-46 -7,-119 -7,-163 v -81 l -75,-37 c -66,-32 -84,-37 -148,-37 -117,0 -239,-41 -316,-106 -18,-14 -33,-25 -35,-23 -2,2 9,72 25,154 33,176 36,245 10,300 -31,67 -80,97 -181,110 -67,8 -135,-6 -192,-41 l -43,-26 -1,-101 c 0,-89 -6,-133 -30,-244 -4,-21 -10,-23 -69,-23 -49,0 -65,3 -65,14 0,7 -25,108 -56,222 -30,115 -77,292 -104,394 -177,668 -261,984 -266,991 -9,15 -34,10 -41,-7 -3,-8 29,-148 72,-310 64,-241 76,-297 64,-304 -21,-14 -134,-23 -186,-16 -27,4 -79,16 -116,28 l -68,21 5,46 c 4,25 20,186 36,356 17,171 35,327 40,347 9,31 34,55 183,170 94,74 177,137 184,141 8,5 23,-13 44,-55 17,-35 55,-99 84,-144 59,-91 96,-116 142,-95 14,6 26,10 28,9 1,-2 41,-133 89,-293 49,-159 90,-292 91,-294 4,-4 227,69 237,78 4,3 -31,134 -78,291 -61,206 -81,286 -72,289 7,2 26,17 41,33 l 29,28 -3,168 -4,167 190,-12 c 105,-7 208,-15 230,-18 z m -841,-105 124,-101 -27,-86 c -40,-130 -62,-134 -133,-26 -69,105 -108,188 -108,230 0,39 9,83 17,83 2,0 60,-45 127,-100 z m 285,-264 c 37,-116 161,-539 159,-540 -2,-1 -33,-11 -70,-23 l -68,-21 -24,81 c -97,321 -146,491 -146,506 0,10 7,41 15,69 l 16,52 54,-47 c 30,-26 59,-60 64,-77 z m 1170,-317 c 21,-28 22,-34 10,-56 -25,-47 -148,-150 -227,-191 -108,-56 -118,-58 -126,-28 -3,13 -8,31 -11,38 -4,10 6,18 33,26 80,24 207,125 265,209 12,18 25,33 28,33 3,0 16,-14 28,-31 z m -4549,-94 c 53,-19 90,-51 90,-78 0,-17 -5,-18 -37,-13 -21,3 -56,8 -78,12 -26,4 -67,-1 -115,-14 -62,-16 -80,-18 -105,-8 -58,24 -40,94 29,116 41,13 161,4 216,-15 z m 996,-92 c 21,-11 47,-31 58,-46 18,-24 18,-29 5,-42 -13,-13 -19,-13 -54,5 -22,11 -55,20 -75,20 -62,0 -101,45 -67,79 16,17 85,9 133,-16 z m -783,-16 c 17,-22 18,-29 7,-42 -27,-33 -70,-7 -70,44 0,38 34,37 63,-2 z m 6876,-125 c 51,-25 74,-62 79,-129 4,-60 -4,-108 -184,-1133 -67,-378 -85,-501 -82,-558 3,-91 0,-94 -126,-94 -104,-1 -154,16 -190,65 -41,56 -36,105 88,822 64,369 118,680 121,692 4,19 -3,16 -70,-24 -98,-60 -161,-69 -193,-28 -41,52 -33,65 91,139 124,74 270,186 314,241 26,33 30,35 73,29 25,-3 60,-13 79,-22 z m -5297,-13 c 38,-19 57,-54 40,-71 -7,-7 -18,-5 -33,5 -13,8 -44,18 -69,21 -69,11 -95,47 -47,65 26,11 59,5 109,-20 z m 2507,-55 -31,-69 -19,54 c -10,30 -18,55 -16,55 1,1 22,11 47,22 25,12 46,18 48,14 1,-4 -12,-38 -29,-76 z m -5108,5 c 36,-12 69,-36 69,-50 0,-5 -28,-8 -62,-7 -35,0 -83,-2 -108,-7 -51,-8 -76,8 -64,40 13,33 99,46 165,24 z m 143,-72 c 8,-12 7,-20 -2,-29 -16,-16 -47,13 -38,37 7,19 25,16 40,-8 z m 3196,-148 c 69,-19 196,-24 267,-10 l 43,8 11,-39 c 6,-22 9,-42 7,-43 -2,-2 -43,-9 -91,-15 -92,-11 -201,-3 -287,23 -45,13 -45,13 -48,61 -3,44 -1,48 15,41 10,-5 47,-16 83,-26 z m 2462,-113 87,-67 -105,-167 c -58,-92 -110,-171 -115,-176 -7,-8 -78,35 -162,98 -17,13 -12,26 84,205 68,127 106,188 113,183 6,-5 50,-39 98,-76 z M 1317,2267 c 50,-27 66,-67 61,-151 -2,-39 -55,-344 -118,-678 -62,-334 -110,-611 -107,-615 13,-12 418,-22 547,-13 75,5 151,17 190,29 36,12 68,21 72,21 14,0 30,-84 23,-126 -15,-103 -101,-163 -247,-172 -148,-8 -408,38 -582,103 l -63,24 -29,-30 C 987,578 814,537 715,574 c -64,25 -95,66 -95,126 0,43 5,54 34,83 32,32 95,57 143,57 17,0 31,64 136,633 65,347 118,645 117,661 v 29 l -67,-6 c -171,-15 -282,-109 -283,-240 0,-65 38,-107 99,-107 37,0 41,-2 41,-25 0,-13 -14,-40 -31,-60 -91,-103 -313,-73 -386,53 -24,40 -28,58 -27,122 1,203 156,329 474,384 14,2 113,3 220,3 166,-2 200,-5 227,-20 z m 1819,-2 c 63,-41 86,-154 44,-223 -57,-93 -187,-93 -237,1 -24,45 -23,133 2,176 40,67 127,88 191,46 z m 871,-7 c 13,-12 23,-32 23,-45 0,-19 -5,-23 -29,-23 -21,0 -30,6 -34,21 -5,17 -12,20 -44,17 -30,-2 -39,-7 -41,-25 -3,-19 5,-24 55,-39 73,-21 90,-32 104,-65 21,-51 -18,-114 -78,-125 -75,-14 -153,28 -153,82 0,20 5,24 29,24 20,0 30,-6 34,-20 13,-50 112,-48 105,2 -2,17 -17,27 -68,44 -73,26 -90,43 -90,94 0,39 27,73 65,83 36,10 99,-4 122,-25 z m -1800,3 c 37,-23 51,-68 33,-111 -7,-16 -37,-48 -69,-72 l -56,-43 68,-3 c 64,-3 67,-4 67,-27 0,-25 0,-25 -106,-25 -93,0 -105,2 -100,16 3,9 6,22 6,29 0,13 14,27 104,107 33,29 38,39 32,61 -5,22 -12,27 -36,27 -26,0 -31,-5 -36,-30 -5,-25 -11,-30 -35,-30 -24,0 -29,4 -29,23 1,50 48,96 100,97 14,0 39,-9 57,-19 z m 251,-73 c 2,-69 6,-88 17,-88 9,0 15,-10 15,-25 0,-16 -6,-25 -15,-25 -10,0 -15,-11 -15,-35 0,-32 -2,-35 -30,-35 -28,0 -30,3 -30,35 v 35 h -60 c -56,0 -60,2 -60,23 0,12 28,64 62,115 54,79 67,92 88,90 24,-3 25,-5 28,-90 z m 252,37 v -55 h 55 55 v 56 55 l 33,-3 32,-3 v -145 -145 h -30 c -30,0 -30,0 -33,63 l -3,62 h -54 -55 v -65 -65 h -30 -30 v 150 150 h 30 c 30,0 30,-1 30,-55 z m 755,30 c 29,-28 35,-95 10,-115 -13,-11 -14,-16 -2,-34 8,-12 16,-45 19,-74 l 5,-53 -31,3 c -29,3 -31,6 -38,52 -8,56 -18,66 -70,66 h -38 v -60 -60 h -30 -30 v 150 150 h 90 c 83,0 93,-2 115,-25 z m 276,-110 c 58,-157 59,-165 20,-165 -25,0 -31,6 -41,35 -12,36 -12,36 -63,33 -49,-3 -52,-5 -61,-36 -8,-29 -13,-33 -40,-30 -17,2 -30,8 -29,13 1,6 23,72 50,148 l 48,138 34,-3 35,-3 z m 1612,-96 c 24,-6 42,-19 49,-34 11,-25 15,0 -78,-505 -30,-162 -54,-313 -54,-336 0,-89 73,-101 153,-26 26,25 27,30 21,83 -17,151 70,300 214,367 49,23 70,27 152,27 108,0 148,-15 181,-68 27,-43 21,-105 -15,-151 -34,-45 -145,-100 -262,-129 l -90,-23 9,-34 c 13,-52 42,-86 93,-111 68,-32 179,-24 264,22 33,18 69,44 79,58 21,30 86,367 78,407 -3,19 1,26 20,30 39,10 123,-2 141,-20 17,-17 21,-69 9,-121 l -7,-30 22,30 c 67,91 150,144 226,145 35,0 49,-6 74,-30 28,-28 30,-35 26,-81 -8,-81 -69,-128 -147,-113 -27,6 -29,8 -19,35 13,38 4,59 -26,59 -31,0 -100,-76 -145,-159 -38,-71 -81,-232 -81,-302 0,-47 -1,-48 -35,-55 -42,-8 -94,1 -121,20 -14,11 -19,27 -19,59 v 45 l -33,-29 c -76,-67 -208,-106 -319,-94 -77,8 -173,54 -210,99 l -25,33 -40,-43 c -66,-72 -159,-105 -236,-85 -48,13 -98,59 -106,99 l -7,27 -57,-55 c -41,-40 -71,-60 -104,-69 -83,-23 -167,6 -214,76 l -21,32 -34,-35 c -91,-95 -228,-108 -298,-28 -50,57 -51,88 -10,320 12,67 19,129 16,138 -4,10 -18,16 -39,16 -43,0 -120,-79 -170,-175 -45,-86 -88,-230 -88,-295 0,-41 -3,-49 -22,-54 -70,-18 -145,8 -154,53 l -6,29 -43,-33 c -107,-81 -242,-65 -289,36 l -22,46 -23,-31 c -58,-75 -135,-112 -211,-101 -109,17 -170,92 -170,209 v 55 l -32,-5 c -18,-3 -53,1 -78,10 -24,8 -45,14 -46,13 0,-1 -18,-34 -38,-73 -86,-166 -214,-239 -348,-200 -42,12 -65,27 -97,61 -22,24 -41,51 -41,59 0,8 -26,-12 -58,-44 -47,-47 -71,-62 -116,-75 -98,-29 -171,-2 -209,75 l -23,46 -25,-33 c -104,-141 -301,-131 -364,19 -33,81 -12,265 42,356 89,154 277,218 397,137 31,-21 38,-22 43,-10 9,25 58,45 107,45 66,0 77,-6 65,-38 -17,-43 -79,-373 -79,-419 0,-93 89,-99 167,-10 27,31 30,42 36,128 4,52 14,134 23,184 8,49 14,102 12,117 -5,33 5,38 73,38 103,0 116,-27 88,-182 -38,-208 -25,-311 42,-338 69,-29 150,15 194,104 39,81 42,120 11,186 -36,77 -37,170 -1,205 26,27 80,34 114,15 42,-22 51,-134 21,-241 -12,-41 6,-64 56,-74 53,-9 71,0 77,43 10,56 54,137 103,186 99,99 244,125 338,61 20,-13 36,-20 36,-15 0,21 65,50 112,50 68,0 79,-6 66,-38 -16,-44 -78,-371 -78,-418 0,-72 50,-95 116,-55 65,39 78,72 114,268 18,100 30,193 28,207 -6,30 6,36 77,36 90,0 116,-42 91,-147 -6,-24 -1,-21 44,29 119,133 289,157 345,49 21,-41 20,-61 -12,-249 -28,-167 -28,-182 9,-205 21,-14 78,0 111,27 26,21 29,30 32,97 8,144 65,270 154,335 93,68 200,83 284,40 26,-13 47,-22 47,-19 0,2 14,78 30,170 17,91 30,192 30,225 0,51 3,60 23,68 30,12 65,12 110,-1 z m 825,-209 c -10,-14 -29,-38 -43,-55 l -25,-30 v 81 c 0,45 3,103 7,130 l 6,48 37,-74 c 36,-74 36,-75 18,-100 z m 773,54 c 23,-21 25,-81 4,-111 -33,-47 -118,-50 -151,-5 -16,21 -18,66 -4,92 26,48 110,61 151,24 z m -60,-275 c 40,-21 40,-49 2,-260 -34,-183 -36,-204 -22,-228 22,-40 73,-40 127,-1 42,30 42,31 42,93 0,211 133,386 305,404 71,7 118,-3 155,-33 26,-22 31,-24 36,-10 15,39 109,59 169,36 21,-8 24,-13 16,-27 -14,-27 -91,-386 -91,-426 0,-91 94,-89 173,4 63,73 81,12 20,-68 -42,-55 -54,-66 -103,-92 -108,-57 -226,-22 -261,77 l -11,32 -29,-39 c -15,-22 -50,-52 -76,-68 -88,-51 -207,-30 -261,46 l -25,36 -37,-36 c -104,-100 -256,-100 -314,0 -27,47 -24,131 14,337 17,93 30,181 28,196 -3,15 0,30 6,32 22,9 118,6 137,-5 z M 3967,786 c 28,-31 33,-43 33,-86 0,-89 -45,-140 -125,-140 -78,0 -125,51 -125,135 0,89 53,140 140,131 35,-3 51,-11 77,-40 z m 1752,29 c 28,-14 41,-33 41,-61 0,-22 -48,-17 -60,7 -15,27 -75,24 -75,-5 0,-14 14,-23 58,-36 75,-23 87,-35 87,-80 0,-54 -34,-80 -107,-80 -47,0 -59,4 -84,29 -16,16 -29,37 -29,45 0,25 46,19 74,-9 28,-28 44,-31 71,-11 28,20 13,40 -49,59 -87,28 -109,76 -57,128 34,33 83,39 130,14 z m 341,0 c 31,-16 50,-43 50,-69 0,-24 -47,-20 -60,4 -26,48 -102,29 -115,-30 -10,-43 11,-99 40,-106 37,-9 59,-1 73,29 9,18 21,27 36,27 32,0 36,-7 24,-41 -24,-71 -126,-94 -187,-44 -73,63 -60,194 24,231 40,18 80,17 115,-1 z m 373,-23 c 62,-63 43,-190 -33,-222 -49,-20 -120,-7 -151,28 -58,64 -39,185 33,217 51,23 114,13 151,-23 z M 2430,715 V 610 h 66 c 62,0 65,-1 62,-22 -3,-22 -7,-23 -93,-23 h -90 l -3,128 -3,127 h 31 30 z m 298,-22 -3,-128 -27,-3 -28,-3 v 130 131 h 30 31 z m 237,37 29,-90 23,82 c 13,44 26,85 29,90 3,4 23,8 45,8 h 39 V 690 560 h -25 c -25,0 -25,0 -25,98 l -1,97 -32,-95 c -28,-85 -35,-95 -56,-95 -21,0 -27,10 -52,80 l -28,80 -3,-80 c -3,-79 -3,-80 -30,-83 l -28,-3 v 130 131 h 43 43 z m 472,75 c 42,-30 38,-111 -7,-135 -12,-7 -41,-12 -65,-12 h -44 l -3,-46 c -3,-43 -5,-47 -30,-50 l -28,-3 v 130 131 h 78 c 53,0 84,-5 99,-15 z M 3630,689 V 559 l -27,3 -28,3 -3,128 -3,127 h 31 30 z m 649,80 29,-51 27,51 c 24,43 33,51 57,51 15,0 28,-5 28,-11 0,-7 -18,-40 -39,-74 -31,-49 -41,-74 -43,-116 -3,-51 -5,-54 -30,-57 -27,-3 -28,-2 -28,47 0,43 -7,62 -45,123 -25,40 -45,76 -45,80 0,5 13,8 30,8 25,0 34,-8 59,-51 z m 529,29 c -3,-21 -9,-23 -65,-26 -59,-3 -63,-4 -63,-27 0,-24 3,-25 55,-25 52,0 55,-1 55,-25 0,-24 -3,-25 -55,-25 h -55 v -56 c 0,-54 0,-55 -27,-52 l -28,3 -3,128 -3,127 h 96 c 94,0 96,-1 93,-22 z m 302,2 c 24,-24 27,-82 5,-100 -13,-11 -14,-15 -2,-29 8,-9 17,-37 20,-63 7,-48 6,-48 -23,-48 -26,0 -30,4 -35,38 -11,61 -12,62 -60,62 h -45 v -51 c 0,-49 -1,-50 -27,-47 l -28,3 -3,128 -3,127 h 91 c 77,0 93,-3 110,-20 z m 340,-5 c 0,-24 -2,-25 -65,-25 -63,0 -65,-1 -65,-25 0,-24 3,-25 60,-25 57,0 60,-1 60,-25 0,-24 -3,-25 -60,-25 h -60 v -30 -30 h 71 c 67,0 70,-1 67,-22 -3,-22 -8,-23 -100,-26 l -98,-3 v 131 130 h 95 c 95,0 95,0 95,-25 z"
       id="path1"
       style="fill:#000000;fill-opacity:1" />
    <path
       d="m 6728,4175 c -51,-28 -50,-103 2,-130 36,-19 75,-11 95,18 47,68 -26,151 -97,112 z m 67,-65 c 0,-20 -6,-26 -26,-28 -17,-2 -29,3 -32,12 -11,28 4,47 32,44 20,-2 26,-8 26,-28 z"
       id="path2"
       style="fill:#000000;fill-opacity:1" />
    <path
       d="m 5102,3591 c -21,-13 -11,-55 14,-59 30,-4 48,21 34,47 -11,22 -27,26 -48,12 z"
       id="path3"
       style="fill:#000000;fill-opacity:1" />
    <path
       d="m 5162,3381 c -8,-4 -12,-19 -10,-32 4,-33 53,-40 63,-9 11,36 -22,61 -53,41 z"
       id="path4"
       style="fill:#000000;fill-opacity:1" />
    <path
       d="m 5222,3171 c -8,-4 -12,-19 -10,-32 4,-29 45,-34 61,-7 19,30 -19,60 -51,39 z"
       id="path5"
       style="fill:#000000;fill-opacity:1" />
    <path
       d="m 3011,2204 c -33,-42 -26,-141 13,-166 22,-15 73,-8 92,13 14,16 19,36 19,81 0,51 -4,63 -24,79 -34,27 -75,24 -100,-7 z"
       id="path6"
       style="fill:#000000;fill-opacity:1" />
    <path
       d="m 2369,2153 c -13,-21 -25,-41 -27,-45 -2,-5 10,-8 27,-8 30,0 31,1 31,45 0,25 -2,45 -4,45 -2,0 -15,-17 -27,-37 z"
       id="path7"
       style="fill:#000000;fill-opacity:1" />
    <path
       d="m 3320,2189 v -40 l 53,3 c 47,3 52,6 55,27 5,32 -21,51 -70,51 -38,0 -38,0 -38,-41 z"
       id="path8"
       style="fill:#000000;fill-opacity:1" />
    <path
       d="m 3638,2150 -16,-50 h 35 c 37,0 38,3 9,72 l -11,28 z"
       id="path9"
       style="fill:#000000;fill-opacity:1" />
    <path
       d="m 5743,1540 c -42,-25 -87,-88 -103,-143 -20,-72 -14,-79 47,-58 74,25 129,67 153,115 23,48 25,77 8,94 -18,18 -69,14 -105,-8 z"
       id="path10"
       style="fill:#000000;fill-opacity:1" />
    <path
       d="m 1955,1521 c -80,-50 -126,-144 -133,-275 -4,-82 -2,-94 18,-118 50,-64 130,-19 189,104 28,59 71,206 71,243 0,9 -11,27 -25,40 -29,30 -77,33 -120,6 z"
       id="path11"
       style="fill:#000000;fill-opacity:1" />
    <path
       d="m 3445,1522 c -46,-29 -71,-61 -102,-127 -22,-49 -28,-78 -31,-155 -3,-86 -2,-97 17,-117 43,-45 111,-22 159,54 32,50 86,200 97,268 5,31 3,46 -12,63 -26,33 -89,39 -128,14 z"
       id="path12"
       style="fill:#000000;fill-opacity:1" />
    <path
       d="m 5004,1530 c -35,-14 -86,-72 -110,-126 -33,-75 -49,-198 -32,-249 22,-65 86,-74 143,-18 64,64 150,311 125,359 -21,38 -78,54 -126,34 z"
       id="path13"
       style="fill:#000000;fill-opacity:1" />
    <path
       d="m 7354,1521 c -75,-46 -124,-150 -131,-281 -5,-77 -3,-88 17,-112 47,-60 121,-27 178,79 34,64 82,219 82,263 0,60 -83,89 -146,51 z"
       id="path14"
       style="fill:#000000;fill-opacity:1" />
    <path
       d="m 3830,760 c -14,-14 -20,-33 -20,-63 0,-58 22,-87 65,-87 43,0 65,29 65,87 0,50 -26,83 -65,83 -14,0 -34,-9 -45,-20 z"
       id="path15"
       style="fill:#000000;fill-opacity:1" />
    <path
       d="m 6307,768 c -58,-45 -33,-158 35,-158 40,0 68,32 68,79 0,69 -57,113 -103,79 z"
       id="path16"
       style="fill:#000000;fill-opacity:1" />
    <path
       d="m 3320,735 c 0,-32 3,-35 28,-35 41,0 66,21 58,48 -6,18 -15,22 -47,22 -38,0 -39,-1 -39,-35 z"
       id="path17"
       style="fill:#000000;fill-opacity:1" />
    <path
       d="m 4977,774 c -4,-4 -7,-20 -7,-36 0,-28 1,-29 48,-26 43,3 47,5 50,31 2,15 0,27 -5,27 -4,1 -24,3 -43,6 -20,3 -39,2 -43,-2 z"
       id="path18"
       style="fill:#000000;fill-opacity:1" />
  </g>
</svg>
