<?xml version="1.0" encoding="utf-8"?>
<!-- Generator: Adobe Illustrator 27.4.1, SVG Export Plug-In . SVG Version: 6.00 Build 0)  -->
<svg version="1.1" id="Layer_1" xmlns="http://www.w3.org/2000/svg" xmlns:xlink="http://www.w3.org/1999/xlink" x="0px" y="0px"
	 viewBox="0 0 1080 1080" style="enable-background:new 0 0 1080 1080;" xml:space="preserve">
<g>
	<path d="M555.94,665.17c0.91-0.61,1-1.46,1.26-2.17c19.91-54.71,39.84-109.42,59.67-164.16c5.99-16.55,10.95-33.41,14.18-50.74
		c2.18-11.72,3.38-23.52,2.4-35.45c-0.82-10.03-3.17-19.61-9.18-27.96c-6.93-9.64-16.67-14.63-28.06-16.85
		c-3.59-0.7-7.21-1.22-10.87-1.33c-1.57-0.05-2.29-0.51-2.24-2.18c0.05-1.62,0.95-1.86,2.25-1.79c0.68,0.04,1.37,0,2.06,0
		c39.54,0,79.08,0,118.62,0c0.91,0,1.83,0,2.74,0.03c0.59,0.02,1.17,0.13,1.24,0.86c0.06,0.67,0.19,1.44-0.56,1.82
		c-0.49,0.25-1.07,0.38-1.62,0.49c-7.94,1.62-14.72,5.44-20.7,10.8c-8.38,7.52-14.36,16.83-19.72,26.57
		c-8.44,15.35-15.06,31.52-21.12,47.92c-14.14,38.22-28,76.55-42.2,114.75c-18.13,48.8-36.49,97.51-54.75,146.26
		c-3.52,9.41-7.07,18.81-10.61,28.21c-0.28,0.75-0.49,1.55-0.89,2.22c-0.8,1.32-2.54,1.33-3.36,0.04c-0.42-0.67-0.66-1.45-0.94-2.2
		c-11.71-30.48-23.41-60.96-35.11-91.44c-25.47-66.41-50.69-132.91-75.38-199.62c-5.87-15.85-12.22-31.51-20.01-46.55
		c-4.05-7.83-8.6-15.35-14.42-22.03c-6.55-7.52-14.34-13.03-24.32-14.97c-0.44-0.09-0.9-0.2-1.29-0.41c-0.71-0.39-0.74-1.1-0.62-1.8
		c0.11-0.68,0.6-0.91,1.23-0.92c0.8-0.02,1.6-0.03,2.4-0.03c36.45,0,72.91,0,109.36,0c0.69,0,1.37,0.01,2.06,0.01
		c0.76,0.01,1.33,0.23,1.41,1.12c0.08,0.91-0.2,1.62-1.12,1.85c-1.33,0.33-2.68,0.55-4.01,0.86c-4.02,0.92-7.9,2.24-11.5,4.31
		c-7.32,4.2-9.9,9.79-8.33,18.1c0.89,4.72,2.18,9.33,3.63,13.91c5.56,17.53,12.16,34.69,18.82,51.82
		c22.11,56.82,42.54,114.27,64.29,171.22c4.6,12.05,9.14,24.13,13.72,36.19C554.74,662.96,554.92,664.12,555.94,665.17z"/>
	<path d="M655.07,1044.64c3.86,1.01,7.52,2.19,10.87,4.21c1.48,0.89,2.86,1.89,3.92,3.28c0.5,0.65,0.99,1.41,0.49,2.18
		c-0.61,0.94-1.43,0.3-2.11-0.01c-1.45-0.67-2.89-1.37-4.29-2.13c-6.99-3.77-14.45-3.85-22.02-2.67c-1.08,0.17-2.08,0.9-3.08,1.44
		c-5.92,3.22-11.91,6.29-18.11,8.94c-1.06,0.45-2.1,1.42-3.68,0.53c0.61-1.43,1.95-1.91,3.01-2.58c5.22-3.28,10.39-6.66,15.76-9.69
		c6.68-3.78,10.33-9.81,13.04-16.6c1.54-3.85,1.97-7.96,2.4-12.06c0.13-1.21-0.01-3.09,1.32-3.14c1.66-0.07,1.65,1.95,1.83,3.19
		c0.54,3.54,0.1,7.06-0.72,10.54c-0.2,0.87-0.76,1.69-0.4,2.62c0.52,0.34,0.86,0.02,1.16-0.31c10.48-11.55,19.05-24.29,23.44-39.42
		c5.37-18.47,3.52-36.38-4.93-53.63c-1-2.05-2.04-4.09-3.01-6.15c-0.24-0.5-0.34-1.09,0.12-1.8c1.74-0.02,2.73,1.34,3.77,2.43
		c4.42,4.63,7.4,10.17,9.48,16.13c5.01,14.36,5.04,28.93,1.04,43.5c-3.21,11.7-8.8,22.26-16.15,31.9c-0.73,0.96-1.44,1.94-2.29,3.08
		c1.37,0.23,1.98-0.56,2.69-1.01c2.23-1.39,4.32-3.01,6.6-4.3c5.98-3.4,10.58-8.18,14.63-13.69c6.66-9.04,12.47-18.53,17.37-28.67
		c2.7-5.6,2.92-11.15,2.08-16.99c-1.03-7.15-3.2-14.01-5.54-20.82c-2.48-7.24-4.73-14.53-5.94-22.13
		c-1.38-8.68-0.46-17.06,2.64-25.25c3.54-9.36,8.96-17.68,14.3-26.72c9.95,23.18,13.3,46.78,10.23,71.24
		c-3.06,24.35-11.61,46.6-26.72,66.04c0.54,0.54,0.85,0.32,1.1,0.14c15.82-11.49,29.72-24.87,41.43-40.63
		c7.99-10.76,11.56-22.87,13.36-35.82c1.62-11.65,0.67-23.26-0.34-34.88c-0.67-7.76-0.89-15.51,0.6-23.22
		c2.3-11.96,8.87-21.37,17.56-29.53c3.67-3.45,7.64-6.54,11.79-9.38c10.38-7.11,21.47-13,32.9-19.29c-0.27,1.63-1.26,2.39-1.95,3.27
		c-4.37,5.57-9.09,10.87-12.75,16.98c-6.21,10.38-10.25,21.64-13.74,33.14c-4.91,16.16-9.47,32.44-15.51,48.24
		c-5.55,14.52-11.68,28.78-19.37,42.32c-0.22,0.39-0.39,0.81-0.62,1.28c0.95,0.55,1.22-0.32,1.58-0.71
		c18.47-20.44,36.74-41.03,53.3-63.08c1.59-2.12,2.9-4.34,3.93-6.78c5.09-11.98,10.47-23.83,14.34-36.3
		c3.5-11.25,5.91-22.75,8.5-34.22c0.5-2.22,1-4.47,2.16-6.47c0.21-0.35,0.64-0.73,1.02-0.79c0.7-0.11,0.91,0.56,1.1,1.08
		c0.48,1.32,0.39,2.71,0.4,4.07c0.03,8.98-1.85,17.69-3.91,26.37c-1.71,7.21-3.87,14.29-6.58,21.93c1.62-0.97,2.05-2.1,2.65-3.04
		c11.44-17.94,21.45-36.67,30.55-55.88c2.15-4.54,4.11-9.17,6.27-13.71c2.6-5.45,1.38-10.41-1.66-15.2
		c-0.55-0.86-1.28-1.61-1.89-2.44c-0.62-0.84-1.35-1.81-0.39-2.73c0.91-0.88,1.93-0.19,2.8,0.34c1.49,0.91,2.61,2.21,3.6,3.62
		c0.52,0.74,1,1.5,1.89,2.84c0.71-3.38,1.06-6.19,0.81-9.09c-0.42-4.74-1.89-9.13-4.23-13.27c-2.31-4.07-4.91-7.98-6.91-12.23
		c-2.19-4.65-2.34-9.24,0.35-13.76c2.81-4.73,7.18-6.95,12.46-7.31c2.03-0.14,3.63-0.55,5.27-1.84c8.39-6.64,17.8-1.69,19.83,5.34
		c0.28,0.96,0.73,1.55,1.68,1.95c3.96,1.64,5.97,4.82,6.65,8.9c0.23,1.39,0.65,2.22,2.17,2.6c8.57,2.16,10.86,13.8,5.23,20.14
		c-2.57,2.89-5.78,4.78-9.21,6.41c-6.94,3.3-13.45,7.29-19.51,12.01c-0.79,0.61-1.76,1.06-2.32,2.27c1.42,0.38,2.81,0.67,4.14,1.13
		c0.75,0.26,1.47,0.83,1.3,1.77c-0.16,0.9-0.91,1.24-1.77,1.34c-1.7,0.18-3.4,0.36-5.1,0.57c-2.82,0.36-5.09,1.91-7.38,3.44
		c-0.82,0.55-1.2,1.34-1.55,2.2c-2,4.86-4,9.71-5.99,14.57c-0.12,0.29-0.12,0.62-0.23,1.18c1.35,0.04,2.18-0.8,3.1-1.32
		c3.7-2.1,7.61-3.66,11.78-4.53c2.14-0.45,4.32-0.5,6.47-0.08c0.82,0.16,1.53,0.59,1.7,1.48c0.17,0.9-0.35,1.58-1.1,1.95
		c-1.33,0.65-2.66,1.34-4.07,1.76c-9.44,2.8-17.41,7.9-24.06,15.14c-1.1,1.19-2.05,2.43-2.77,3.88
		c-22.01,44.38-51.11,83.77-84.49,120.15c-3.09,3.37-6.24,6.68-9.33,10.05c-0.5,0.55-1.27,0.96-1.26,2.3
		c1.19-1.02,2.21-1.84,3.17-2.71c17.1-15.56,32.92-32.35,47.74-50.09c7.25-8.68,14.51-17.37,22.48-25.41
		c8.42-8.48,17.59-15.99,28.3-21.42c16.65-8.45,34.29-11.49,52.84-9.4c1.93,0.22,3.87,0.32,5.8,0.52c1.79,0.18,3.57,0.41,5.38,0.62
		c-0.34,1.06-1.28,0.93-1.98,1.17c-1.94,0.67-3.87,1.41-5.85,1.94c-11.13,3.01-20.29,9.2-28.29,17.33
		c-4.49,4.56-8.86,9.24-12.97,14.15c-12.74,15.22-28.32,26.77-45.83,35.91c-12.96,6.76-26.19,12.98-38.97,20.09
		c-7.11,3.95-13.76,8.41-19.71,14.08c-11.43,10.89-23.77,20.71-36.52,30.02c-0.97,0.71-2.06,1.29-2.78,2.31
		c0.48,0.36,0.78,0.13,1.06,0c16.97-7.65,34.59-13.7,51.72-20.95c15.17-6.42,29.97-13.59,42.9-24.02
		c5.51-4.45,10.84-9.12,16.27-13.68c0.85-0.72,1.57-1.64,2.89-2.01c-0.06,1.14-0.71,1.94-1.18,2.79
		c-5.51,9.87-10.79,19.86-16.84,29.44c-10.94,17.34-26.49,28.34-45.89,34.31c-10.84,3.33-21.96,5.29-33.15,6.89
		c-9.83,1.41-19.66,2.87-29.55,3.81c-1.48,0.14-2.96,0.39-4.43,0.38c-4.39-0.01-8.24,1.41-11.74,4.01
		c-12.19,9.08-24.94,17.35-37.8,25.45c-0.45,0.28-1.06,0.47-1.11,1.48c2.71-0.32,5.35-0.7,8-0.93c16.85-1.41,31.93,2.76,44.6,14.33
		c3.32,3.03,5.92,6.64,7.81,10.74c0.1,0.21,0.18,0.42,0.25,0.64c0.47,1.48,1.66,3.44,0.2,4.36c-1.49,0.94-2.46-1.2-3.34-2.26
		c-4.64-5.57-9.74-10.58-16.06-14.26c-8.59-4.99-17.82-7.44-27.76-7.52C674.7,1038.78,663.24,1041.09,655.07,1044.64z
		 M810.25,924.96c1.19,0.49,1.65,0.04,2.12-0.21c6.66-3.52,13.37-6.94,19.94-10.6c12-6.68,23.52-14.05,33.31-23.83
		c4.85-4.85,9.36-10.01,13.89-15.14c6.44-7.28,13.12-14.3,20.93-20.16c0.25-0.19,0.56-0.43,0.37-0.85c-0.18-0.1-0.36-0.29-0.55-0.29
		c-0.68-0.01-1.37,0.01-2.05,0.09c-9.6,1.1-18.81,3.62-27.53,7.77c-10.85,5.16-20.12,12.51-28.57,20.97
		c-10.75,10.76-20.12,22.74-30.05,34.21c-0.28,0.32-0.66,0.61-0.42,1.33c1.11-0.35,1.86-1.2,2.7-1.87
		c4.38-3.48,8.71-7.02,13.12-10.47c3.32-2.6,6.68-5.18,10.29-7.38c1.07-0.65,2.15-1.71,3.69-0.99c-0.34,1.69-1.53,2.64-2.58,3.66
		c-4.26,4.14-8.89,7.86-13.5,11.6C820.41,916.83,815.43,920.81,810.25,924.96z M793.9,833.82c-4.45,2.69-8.33,5.44-12.13,8.3
		c-15.8,11.86-24.25,27.25-22.79,47.43c0.53,7.29,1.2,14.56,1.28,21.88c0,0.3-0.24,0.94,0.51,0.93c0.54-1.19,0.73-2.42,0.94-3.66
		c0.77-4.38,1.47-8.78,2.65-13.07c0.38-1.37,0.6-2.86,2.18-3.78c0.91,1.5,1.04,2.96,0.91,4.41c-0.23,2.61-0.5,5.23-0.88,7.82
		c-0.63,4.3-1.36,8.58-2.11,13.25c1.41-1.18,1.56-2.5,2-3.64c3.9-10.12,7.18-20.44,10.36-30.81c4.97-16.24,9.2-32.74,17.07-47.95
		C793.94,834.83,793.9,834.7,793.9,833.82z M752.05,992.81c0.53,0.67,1.11,0.51,1.61,0.42c11.22-2.07,22.42-4.17,33.3-7.72
		c17.34-5.66,31.34-15.66,41.06-31.28c0.43-0.7,1.29-1.3,0.93-2.48c-0.53,0.26-0.95,0.42-1.32,0.66
		c-13.63,8.93-28.41,15.55-43.5,21.5c-12.52,4.94-25.12,9.68-37.66,14.55c-1.16,0.45-2.51,0.7-3.48,1.8
		c0.77,0.37,1.3,0.12,1.84-0.02c7.06-1.84,14.04-4.01,21.19-5.51c1.18-0.25,2.39-0.6,3.99,0.42
		C764.53,989.49,757.98,990.41,752.05,992.81z M716.53,949.01c4.88-21.8,3.92-43.3-2.89-64.55c-1.09,0.22-1.35,0.88-1.68,1.47
		c-2.06,3.69-3.99,7.43-5.51,11.39c-2.76,7.16-3.8,14.48-2.68,22.15c1.44,9.88,4.7,19.26,7.51,28.76c0.09,0.3,0.24,0.66,0.91,0.62
		c-0.01-4.3-0.49-8.59-0.9-12.88c-0.17-1.82-0.35-3.64-0.24-5.46c0.04-0.69,0.18-1.42,1.04-1.51c0.67-0.07,1.01,0.49,1.26,0.99
		c1.34,2.7,1.87,5.62,2.21,8.57C715.95,942.03,716.21,945.53,716.53,949.01z M892.69,734.65c0.42-1.9,0.68-3.33,1.06-4.73
		c0.46-1.7,0.06-3.15-1.06-4.44c-1.85-2.13-4.8-2.63-7.48-1.21c-2.76,1.46-4.49,3.8-5.57,6.67c-0.81,2.17-0.96,4.43-1.05,6.73
		c-0.29,7.23,1.27,14.3,1.84,21.45c0.04,0.45,0.19,0.87,0.89,1.09c1.19-1.3,1.41-3.5,3.44-4.6c0.21,3.74-1.68,6.91-1.68,10.61
		c0.55-0.38,0.87-0.52,1.08-0.77c4.75-5.69,9.64-11.28,13.77-17.45c1.01-1.51,1.9-3.11,2.77-4.72c0.71-1.31,1.16-2.74,1.36-4.22
		c0.56-4.17-2.18-6.49-6.16-5.3C895.02,734.03,894.14,734.25,892.69,734.65z M893.33,764.64c0.31,0.39,0.67,0.24,0.95,0.09
		c4.15-2.14,8.32-4.25,12.43-6.48c1.29-0.7,2.55-1.57,3.59-2.59c3.62-3.54,3.15-9.45-0.87-12.27c-0.94-0.66-1.59-0.73-2.08,0.49
		c-2.89,7.09-7.86,12.77-12.64,18.59C894.16,763.13,893.3,763.64,893.33,764.64z M874.42,726.79c-2.17,0.84-3.29,1.58-4.33,2.46
		c-2.21,1.86-3.45,4.26-3.47,7.13c-0.01,2.77,3.92,9.9,6.47,12.03C872.33,741.29,871.72,734.3,874.42,726.79z"/>
	<path d="M417.69,52.78c-0.93-0.59-1.79-0.09-2.64,0c-16.18,1.56-31.16-1.42-44.18-11.73c-5.18-4.1-9.4-9-12.02-15.14
		c-0.68-1.58-1.25-3.21-1.08-4.97c0.11-1.11,0.78-1.49,1.58-0.72c1.14,1.1,2.15,2.36,3.11,3.63c5.37,7.13,11.8,13.02,19.81,17.08
		c9.63,4.89,19.88,6.46,30.57,5.71c6.06-0.42,11.98-1.62,17.88-2.95c1-0.23,2.01-0.39,2.99-1.23c-1.98-0.63-3.85-1.09-5.62-1.82
		c-3.61-1.49-7.07-3.25-9.42-6.56c-0.4-0.57-0.78-1.25-0.33-1.88c0.48-0.66,1.28-0.45,1.89-0.16c1.13,0.54,2.23,1.15,3.3,1.81
		c6.91,4.28,14.46,5.35,22.4,4.49c1.29-0.14,2.4-0.72,3.52-1.26c5.88-2.8,11.86-5.35,17.93-7.7c0.85-0.33,1.71-0.64,2.58-0.91
		c0.64-0.2,1.43-0.53,1.76,0.36c0.26,0.69-0.5,0.92-0.95,1.19c-2.17,1.27-4.34,2.52-6.55,3.73c-3.5,1.92-6.96,3.95-10.56,5.68
		c-9.79,4.68-14.63,12.99-17.14,23.04c-0.52,2.1-0.76,4.27-1.22,6.39c-0.18,0.81-0.11,2.1-1.4,1.96c-1.08-0.12-1.19-1.27-1.33-2.15
		c-0.42-2.74-0.28-5.48,0.33-8.17c0.47-2.09,1.07-4.16,1.59-6.16c-0.44-0.38-0.74-0.26-0.98-0.03
		c-11.17,10.89-20.46,23.1-25.76,37.94c-6.64,18.6-5.7,37,2.09,55.1c0.77,1.78,1.53,3.57,2.28,5.36c0.26,0.62,0.55,1.27-0.04,2.05
		c-2.01-0.17-3.04-1.79-4.15-3.14c-4.04-4.94-6.63-10.66-8.32-16.76c-4.28-15.51-3.08-30.77,2.54-45.72
		c3.89-10.37,9.6-19.68,16.81-28.08c0.81-0.94,1.62-1.88,2.46-2.84c-0.82-0.76-1.32-0.08-1.82,0.21c-4.93,2.88-9.86,5.76-14.76,8.69
		c-0.87,0.52-1.65,1.24-2.34,1.98c-10.28,10.99-19.12,22.98-25.9,36.48c-1.6,3.19-2.27,6.4-2.21,9.87
		c0.14,7.36,1.48,14.52,3.42,21.6c2.01,7.38,4.04,14.73,5.39,22.29c2.15,12.09,0.22,23.37-5.56,34.12
		c-3.8,7.06-8.33,13.64-12.84,20.24c-0.18,0.26-0.48,0.42-0.9,0.78c-8.4-23.4-10.55-47.17-6.15-71.51
		c4.38-24.23,14.22-45.91,30.29-64.57c-0.3-0.55-0.61-0.42-0.89-0.23c-17.89,11.75-33.99,25.4-46.92,42.66
		c-5.5,7.34-8.46,15.57-10.73,24.22c-3.41,12.97-3.86,26.16-3.07,39.46c0.5,8.48,0.19,16.9-1.81,25.2
		c-2.03,8.42-6.33,15.6-12.14,21.94c-7.51,8.2-16.68,14.17-26.29,19.53c-8.18,4.57-16.7,8.46-25.1,12.58
		c-0.5,0.24-0.97,0.65-1.6,0.26c0.36-1.13,1.27-1.87,2.06-2.65c13.99-13.66,22.71-30.45,29.11-48.66
		c5.53-15.72,11.01-31.47,17.77-46.72c6.35-14.32,13.23-28.36,21.78-41.52c0.3-0.46,0.53-0.98,0.82-1.53
		c-0.97-0.55-1.3,0.25-1.68,0.64c-19.32,19.46-38.73,38.84-56.33,59.92c-1.92,2.3-3.52,4.73-4.85,7.41
		c-5.64,11.35-11.35,22.66-15.81,34.56c-3.93,10.49-6.9,21.27-9.94,32.04c-0.74,2.63-1.46,5.29-2.7,7.75
		c-0.36,0.7-0.76,1.61-1.72,1.33c-0.68-0.2-0.79-1.05-0.85-1.75c-0.35-4.26,0.27-8.43,1.05-12.59c2.29-12.17,6.07-23.88,10.68-35.35
		c0.33-0.83,0.83-1.62,0.83-2.83c-1.03,0.26-1.37,1.12-1.83,1.77c-15.72,22.1-29.6,45.32-41.59,69.65c-2.33,4.73-1.2,9.58,1.5,14.01
		c0.71,1.17,1.55,2.26,2.25,3.44c0.28,0.48,0.35,1.11-0.11,1.59c-0.44,0.46-1.03,0.44-1.6,0.31c-1.42-0.32-2.42-1.3-3.25-2.39
		c-1.09-1.42-2.04-2.95-3.33-4.84c-1.61,5.88-1.6,11.29,0.03,16.73c1.03,3.41,2.7,6.53,4.31,9.68c1.45,2.84,2.93,5.69,4.2,8.62
		c4.8,11.03-4.56,20.64-13.69,20.19c-2.18-0.11-3.87,0.49-5.67,1.7c-7.69,5.19-16.32,2.36-19.4-6.25c-0.36-1.02-0.7-1.81-1.75-2.32
		c-3.84-1.88-5.68-5.17-6.06-9.29c-0.14-1.47-0.71-2.11-2.12-2.61c-8.79-3.14-9.54-14.32-4.44-19.94c2.77-3.05,6.26-4.92,10-6.42
		c6.59-2.65,12.81-6.02,18.75-9.9c1.32-0.86,2.58-1.82,3.92-2.77c-1.23-1.32-2.8-0.92-3.97-1.59c-0.82-0.47-1.7-0.91-1.43-2.04
		c0.23-0.95,1.15-1.02,1.94-1.1c1.59-0.16,3.18-0.26,4.78-0.36c2.97-0.19,5.41-1.67,7.88-3.12c0.73-0.43,1.13-1.11,1.47-1.84
		c2.3-4.85,4.6-9.7,6.9-14.55c0.14-0.3,0.24-0.64-0.16-1.01c-1.1,0.02-1.98,0.79-2.97,1.26c-4.68,2.22-9.51,3.89-14.76,3.96
		c-1.25,0.02-2.51-0.02-3.7-0.54c-0.77-0.34-1.44-0.74-1.46-1.69c-0.01-0.77,0.46-1.32,1.09-1.61c1.13-0.53,2.29-1.02,3.48-1.41
		c2.28-0.75,4.58-1.4,6.87-2.12c7.96-2.51,14.31-7.48,20.13-13.23c0.79-0.78,1.32-1.86,1.88-2.85
		c17.65-31.16,38.99-59.62,62.91-86.21c11.78-13.09,24.12-25.63,36.89-37.75c0.71-0.67,1.63-1.2,1.99-2.44
		c-1.06,0.16-1.65,0.85-2.31,1.39c-18.35,14.98-35.51,31.23-51.65,48.58c-7.47,8.03-14.94,16.07-23.05,23.47
		c-10.98,10.02-23.02,18.35-37.25,23.18c-15.47,5.26-31.23,6.38-47.3,3.48c-3.12-0.56-6.26-1.01-9.94-1.6
		c2.16-1.35,4.04-1.65,5.84-2.01c14.17-2.86,25.75-10.25,35.81-20.32c3.23-3.23,6.59-6.35,9.7-9.69
		c12.7-13.67,27.78-23.97,44.59-31.91c10.94-5.17,22.18-9.66,33.16-14.75c5.18-2.4,10.29-4.93,15.43-7.41
		c4.23-2.05,8.08-4.63,11.69-7.68c12.75-10.77,26.09-20.77,40.09-29.88c1.01-0.65,2.25-1.08,2.81-2.31
		c-0.46-0.32-0.9-0.22-1.34-0.06c-17.05,6.55-34.57,11.72-51.79,17.78c-8.51,3-16.81,6.53-24.94,10.44
		c-8.05,3.87-15.64,8.49-22.7,14c-5.21,4.07-10.53,8-15.77,11.97c-0.49-0.43-0.33-0.75-0.14-1.04c6.84-10.81,13.3-21.86,20.91-32.17
		c11.65-15.78,27.34-25.23,46.14-29.98c10-2.53,20.18-3.85,30.41-4.78c10.46-0.96,20.94-1.75,31.41-2.54
		c3.19-0.24,6.39-0.24,9.59-0.26c1.41-0.01,2.71-0.27,3.94-0.95c1.8-0.99,3.68-1.85,5.39-2.97c12.02-7.94,24.5-15.09,37.03-22.17
		C416.15,54.09,417.25,53.88,417.69,52.78z M270.17,160.88c-0.15-0.22-0.29-0.44-0.44-0.66c-1.08,0.76-2.16,1.53-3.24,2.29
		c-7.37,5.19-14.55,10.68-22.32,15.3c-1.51,0.9-3.02,1.88-4.91,1.92c-0.2-1.65,0.9-2.3,1.7-3.02c1.95-1.75,3.94-3.49,6.04-5.04
		c7.63-5.63,15.32-11.17,22.97-16.76c0.73-0.53,1.71-0.89,2.27-2.3c-1.08,0.45-1.7,0.69-2.3,0.97c-7.65,3.57-15.35,7.05-22.94,10.75
		c-15.52,7.56-29.7,17.02-41.6,29.68c-3.6,3.83-7.36,7.5-11.11,11.19c-4.82,4.73-9.92,9.12-15.57,12.85
		c-0.58,0.39-1.57,0.54-1.43,1.65c1.49,0.42,2.98,0.2,4.43,0.08c12.45-1.02,24.2-4.39,35.12-10.54c7.1-4,13.62-8.78,19.71-14.18
		C248.54,184.41,259.06,172.35,270.17,160.88z M316.74,165.04c-0.26-0.04-0.52-0.09-0.77-0.13c-0.53,1.11-1.08,2.22-1.58,3.35
		c-6.21,13.98-11.26,28.41-16.42,42.8c-4.08,11.4-8.41,22.68-14.71,33.1c-0.23,0.38-0.54,0.78,0.13,1.37
		c5.38-3.04,10.75-6.23,15.74-10.04c3.83-2.92,7.29-6.22,10.43-9.86c6.96-8.09,10.57-17.53,11.16-28.11
		c0.51-9.13-0.02-18.26,0.07-27.4c0-0.26,0.02-0.73-0.73-0.53c-0.73,2.99-1.45,6.07-2.24,9.15c-0.76,2.98-1.4,6.01-2.74,8.81
		c-0.28,0.58-0.58,1.35-1.47,1.05c-0.65-0.22-0.62-0.92-0.66-1.45c-0.06-0.79-0.02-1.59,0.03-2.39c0.18-2.85,0.7-5.66,1.3-8.45
		C315.09,172.54,315.92,168.79,316.74,165.04z M254.35,125.7c0.7,0.17,1.17-0.17,1.64-0.44c13.58-7.9,28.09-13.68,42.96-18.57
		c13.33-4.38,26.68-8.68,40.01-13.06c1.35-0.44,2.91-0.58,4.21-2.16c-4.17,0.86-7.96,1.64-11.74,2.41
		c-4.36,0.89-8.65,2.14-13.11,2.46c-0.9,0.07-2.06,0.57-2.82-0.98c6-3.98,13.2-4.44,19.66-6.98c-3.42,0.23-6.8,0.65-10.19,1.06
		c-9.64,1.16-19.18,2.79-28.53,5.5c-16.56,4.79-30.25,13.73-40.39,27.82C255.42,123.63,254.53,124.39,254.35,125.7z M365.98,199.08
		c0.32,0.06,0.65,0.13,0.97,0.19c1.62-2.72,3.3-5.41,4.87-8.17c5.51-9.71,7.14-20.06,5.41-31.09c-1.26-8.03-3.51-15.82-5.22-23.74
		c-0.08-0.36-0.31-0.58-0.95-0.6c-0.41,0.99-0.29,2.11-0.26,3.18c0.11,4.11,0.32,8.22,0.4,12.33c0.03,1.39,0.42,3.51-1.28,3.72
		c-1.36,0.17-1.61-1.9-1.93-3.21c-1.08-4.36-1.28-8.8-1.27-13.27c0-1.14,0.21-2.34-0.52-3.4
		C360.67,156.4,360.34,177.75,365.98,199.08z M188.32,318.86c-0.06-4.11,2.08-7.16,2.26-11.3c-6.46,7.11-12.75,13.39-17.77,20.78
		c-1.09,1.61-2.02,3.31-2.48,5.23c-0.33,1.36-0.47,2.69,0.04,4.04c0.85,2.26,2.43,3.15,4.81,2.64c1.19-0.25,2.38-0.54,3.64-0.82
		c0.24,1.76-0.35,3.18-0.91,4.47c-1.45,3.37,2.35,7.65,6.55,6.71c2.07-0.46,3.79-1.58,5.18-3.15c2.2-2.47,3.22-5.45,3.68-8.69
		c0.93-6.52,0.03-12.99-0.41-19.47c-0.11-1.62,0.09-3.34-0.59-5.22C190.7,315.44,190.3,317.42,188.32,318.86z M180.79,309.09
		c-0.08-0.16-0.15-0.32-0.23-0.48c-5.14,2.35-10.29,4.69-15.41,7.08c-0.81,0.38-1.55,0.97-2.24,1.56c-3.8,3.28-3.95,8.57-0.38,12.06
		c1.39,1.36,1.85,1.35,2.69-0.43c1.77-3.76,4.26-7.02,6.92-10.14C174.95,315.45,177.9,312.3,180.79,309.09z M197.17,347.74
		c6.69-1.82,9.46-6.96,7.13-12.79c-0.97-2.42-2.23-4.72-3.4-7.06c-0.26-0.53-0.38-1.38-1.46-0.99
		C200.15,333.84,200.01,340.72,197.17,347.74z"/>
	<path d="M908.08,502.19c0,45.36,0,90.72,0,136.09c0,1.14,0.08,2.3-0.06,3.42c-0.25,1.95-1.73,3.21-3.45,3.11
		c-1.62-0.09-2.84-1.28-3.02-3.14c-0.12-1.25-0.06-2.51-0.06-3.77c0-82.61-0.02-165.22,0.01-247.83
		c0.01-37.48-5.07-74.19-16.14-110.06c-11.35-36.75-28.08-70.85-50.24-102.25c-29.66-42.02-66.48-76.42-110.55-102.96
		c-36.23-21.81-75.07-36.93-116.6-45.07c-22.25-4.36-44.68-6.82-67.37-6.86c-1.36,0-2.77,0.03-4.08-0.26
		c-1.81-0.4-2.69-1.82-2.52-3.55c0.16-1.7,1.26-2.79,3.23-2.81c4.68-0.05,9.37-0.1,14.05,0.09c57.3,2.28,111.35,16.72,161.75,44.08
		c64.65,35.09,114.72,85.01,150.1,149.53c18.48,33.69,31.18,69.49,38.38,107.25c4.42,23.18,6.55,46.57,6.58,70.16
		C908.12,425.63,908.08,463.91,908.08,502.19z"/>
	<path d="M166.41,576.4c0-42.97,0-85.93,0-128.9c0-1.14-0.04-2.29,0.05-3.43c0.13-1.57,1.08-2.47,2.6-2.73
		c1.61-0.27,2.92,0.46,3.51,2.05c0.27,0.73,0.35,1.55,0.4,2.34c0.07,1.02,0.02,2.06,0.02,3.08c0,78.62,0.02,157.24-0.02,235.86
		c-0.01,13.38,0.32,26.74,1.69,40.05c3.49,33.81,11.18,66.63,23.95,98.16c30.95,76.39,81.88,135.85,152.3,178.5
		c35.36,21.41,73.48,36.06,114.06,44.16c19.07,3.81,38.3,6.27,57.75,6.85c4.34,0.13,8.68,0.27,13.02,0.42
		c0.8,0.03,1.62,0.02,2.38,0.22c1.48,0.39,2.54,1.93,2.32,3.37c-0.23,1.46-0.95,2.59-2.58,2.76c-0.91,0.09-1.82,0.1-2.74,0.11
		c-9.6,0.09-19.2-0.22-28.76-1.06c-13.88-1.21-27.68-3.03-41.36-5.79c-24.46-4.93-48.23-12.1-71.25-21.76
		c-43.27-18.16-81.69-43.61-115.25-76.4c-51.14-49.98-85.08-109.78-102.1-179.18c-4.3-17.54-7.07-35.36-8.66-53.37
		c-0.99-11.28-1.35-22.57-1.34-33.89C166.43,650.67,166.41,613.53,166.41,576.4z"/>
	<path d="M199.46,573.67c0-45.36,0-90.72,0-136.08c0-1.14-0.05-2.3,0.13-3.42c0.13-0.83,0.81-1.4,1.7-1.45
		c0.93-0.05,1.55,0.58,1.74,1.37c0.21,0.87,0.18,1.81,0.18,2.72c0.01,8.34,0.01,16.68,0.01,25.02c0,74.61,0.07,149.22-0.04,223.83
		c-0.04,30.22,3.65,59.9,11.47,89.08c0.27,0.99,0.61,1.97,0.43,3.02c-0.12,0.74-0.56,1.25-1.3,1.4c-0.74,0.16-1.42-0.09-1.75-0.76
		c-0.4-0.81-0.68-1.69-0.92-2.57c-4.65-17.23-7.89-34.71-9.74-52.46c-1.4-13.42-1.94-26.88-1.93-40.37
		C199.49,646.56,199.46,610.11,199.46,573.67z"/>
	<path d="M524.39,1025.39c-14.18-0.71-28.24-2.32-42.23-4.59c-19.08-3.1-37.76-7.8-56.01-14.16
		c-38.48-13.4-73.37-33.15-104.72-59.16c-32.73-27.17-59.28-59.46-79.92-96.63c-0.44-0.8-0.89-1.6-1.22-2.45
		c-0.35-0.87,0.08-1.54,0.8-2.04c0.82-0.57,1.6-0.33,2.11,0.37c0.74,1,1.37,2.1,1.98,3.19c17.2,30.9,38.73,58.42,64.64,82.48
		c35.6,33.07,76.57,57.11,122.62,72.48c19.97,6.66,40.42,11.27,61.32,13.97c13.39,1.73,26.8,2.8,40.3,2.78
		c1.03,0,2.07-0.01,3.08,0.13c0.98,0.14,1.71,0.73,1.67,1.83c-0.04,1.07-0.69,1.65-1.73,1.76c-0.57,0.06-1.14,0.05-1.71,0.05
		C531.7,1025.4,528.04,1025.39,524.39,1025.39z"/>
	<path d="M548.99,50.57c7.42,0.56,14.82,1.11,22.22,1.84c15.59,1.54,30.98,4.21,46.18,7.95c58.15,14.31,108.97,42.14,152.48,83.23
		c25.27,23.86,46.2,51.16,63.04,81.58c0.33,0.6,0.69,1.19,0.98,1.81c0.48,1.03,0.54,2.05-0.55,2.71c-1.12,0.68-1.97,0.13-2.58-0.85
		c-0.6-0.97-1.15-1.97-1.7-2.97c-16.95-30.51-38.25-57.64-63.71-81.47c-31.73-29.69-67.93-52.34-108.5-67.92
		c-23.31-8.95-47.33-15.19-72.07-18.69c-15.07-2.13-30.18-3.36-45.4-3.36c-0.68,0-1.38,0.01-2.05-0.08
		c-0.98-0.13-1.76-0.63-1.83-1.71c-0.08-1.25,0.71-1.86,1.86-2.01c0.56-0.07,1.14-0.04,1.71-0.04
		C542.37,50.56,545.68,50.57,548.99,50.57z"/>
	<path d="M871.22,503.8c0-37.48,0.02-74.96-0.01-112.44c-0.02-30.41-3.5-60.39-11.46-89.79c-0.21-0.77-0.45-1.54-0.6-2.32
		c-0.21-1.14,0.11-2.09,1.31-2.43c1.09-0.31,1.73,0.41,2.11,1.3c0.31,0.73,0.48,1.52,0.69,2.29c4.42,16.46,7.53,33.15,9.44,50.09
		c1.56,13.87,2.1,27.78,2.09,41.73c-0.01,81.81-0.01,163.63-0.01,245.44c0,1.14-0.02,2.28-0.03,3.43c-0.01,1.15-0.44,2.12-1.68,2.18
		c-1.24,0.05-1.77-0.86-1.81-2.03c-0.04-1.14-0.04-2.28-0.04-3.43C871.22,593.16,871.22,548.48,871.22,503.8z"/>
	<path d="M824.41,488.34c3.29,1.78,3.98,3.95,2.45,7.61c-0.85,2.04-2.63,3.73-1.94,6.31c-2.88-0.67-2.21-2.85-2.56-4.65
		c-1.12,0.59-2.09,1.17-3.12,1.62c-2.89,1.25-5.88,1.26-8.58-0.27c-2.06-1.17-3.6-0.8-5.24,0.53c-0.96,0.78-1.96,1.52-3.35,2.58
		c-0.1-2.46,0.27-4.34,2.11-5.56c1.38-0.91,1.29-1.76,0.65-3.11c-1.6-3.36-1.38-6.89-0.35-10.36c1.41-4.77,4.99-7.85,9.45-8.22
		c5.34-0.44,9.74,1.31,12.37,6.14c0.93,1.7,1.5,2.2,3.54,1.67c6.11-1.58,10.04,1.8,9.84,8.11c-0.05,1.73-0.5,3.37-1.1,4.98
		c-0.51,1.36-1.02,2.74-0.63,4.4c-2.3,0.16-4.22-0.74-6.46-0.78c0.54-1.52,1.92-1.28,2.8-1.72c2.56-1.28,4.16-3.1,4.26-6.07
		c0.14-3.92-2.15-6.26-6.1-6.02c-2.91,0.17-5.51,1.35-7.94,2.88c-5.23,2.24-10.02,5.22-14.84,8.56c5.7,3.51,12.5,1.46,15.07-4.14
		C825.48,491.24,825.42,489.77,824.41,488.34z M817.6,478.31c-3.84-0.07-6.89,0.98-9.48,3.25c-3.21,2.81-4.16,7.05-2.5,10.85
		c0.89,2.05,1.32,2.22,3.24,1.09c5.29-3.11,10.39-6.54,16-9.07c1.35-0.61,1.32-1.39,0.46-2.35
		C823.16,479.69,820.4,478.53,817.6,478.31z"/>
	<path d="M405.5,893.41c-1.17,1.76-2.22,3.35-3.37,5.07c-0.96-0.73-0.56-1.57-0.55-2.26c0.01-1.39-0.12-2.74-0.74-4
		c-1.12-2.29-4.06-4.05-6.41-3.83c-2.22,0.2-4.23,1.99-4.9,4.66c-0.55,2.2-0.88,4.46-0.18,6.91c3.97-1.75,6.62,0.06,8.8,3.11
		c0.93,1.31,1.89,2.59,3.88,2.75c-1.46,2.41-3.19,1.47-4.83,0.76c-0.76,0.92-0.32,1.84-0.28,2.66c0.16,3.44-0.98,6.43-3.67,8.45
		c-2.07,1.55-2.15,3.22-1.56,5.34c0.3,1.08,0.53,2.19,0.8,3.31c-2.68-0.74-3.34-1.1-3.95-3.34c-0.47-1.73-1.18-2.34-3.02-2.25
		c-3.21,0.15-5.99-1.25-8.5-3.14c-4.23-3.16-5.94-7.74-4.68-12.32c1.37-4.98,5.72-8.9,10.76-9.2c1.97-0.12,2.62-0.5,2.97-2.56
		c1.03-6.2,5.77-8.42,11.45-5.63c1.34,0.66,2.58,1.48,3.63,2.55C402.34,891.67,403.61,892.8,405.5,893.41z M375.65,909.15
		c-0.02,5.88,4,10.4,9.39,10.57c2.34,0.07,2.73-0.39,2.47-2.73c-0.67-5.87-1.72-11.7-1.79-17.64c-0.03-2.15-0.44-2.37-2.43-1.69
		C378.86,899.18,375.66,903.99,375.65,909.15z M391.07,917.53c2.91-1.53,4.32-3.54,4.78-6.63c0.52-3.5-1.36-8.19-3.86-9.63
		c-1.72-0.99-2.82-0.6-2.78,1.17C389.3,907.5,389.91,912.52,391.07,917.53z"/>
	<path d="M546.99,814.77c0.28,10.79-8.54,14.6-16.25,12.46c-0.55-0.15-1.09-0.34-1.61-0.57c-5.1-2.25-7.75-8.27-6.53-14.81
		c1.11-5.93,5.2-9.59,11.02-9.86C542.04,801.61,546.97,806.32,546.99,814.77z M540.92,814.74c0.08-2.66-0.22-5.37-1.46-7.89
		c-0.96-1.95-2.4-3.44-4.71-3.45c-2.31-0.02-3.89,1.42-4.71,3.42c-2.16,5.3-2.18,10.68-0.01,15.99c0.82,2,2.29,3.4,4.68,3.4
		c2.38,0.01,3.77-1.41,4.72-3.36C540.67,820.33,541.01,817.62,540.92,814.74z"/>
	<path d="M305.21,843.06c-8.52-0.04-13.81-7.41-11.14-15.5c2.57-7.8,12.83-15.2,21.04-15.2c8.31,0,13.65,7.26,11.19,15.23
		C323.81,835.69,313.7,843.1,305.21,843.06z M297.25,833.88c-0.01,6.1,3.98,9.17,9.33,7.56c1.4-0.42,2.78-1.07,4.02-1.86
		c4.73-2.99,8.35-7.02,10.85-12.04c0.87-1.75,1.43-3.6,1.61-5.55c0.57-6.17-4-9.96-9.76-7.69c-8.01,3.16-13.12,9.21-15.75,17.36
		C297.26,832.52,297.3,833.47,297.25,833.88z"/>
	<path d="M817.83,386.66c-3.96-0.02-7.07-0.55-9.92-2.2c-6.33-3.67-7.85-11.2-3.42-17.03c0.21-0.27,0.42-0.54,0.65-0.79
		c5.71-6.48,18.57-8.95,26.24-5.03c6.91,3.53,8.67,11.57,3.78,17.62c-3.49,4.33-8.35,6.17-13.63,7.11
		C820.08,386.59,818.59,386.6,817.83,386.66z M825.68,362.19c-5.55,0.15-13.25,3.49-17.53,7.85c-1.29,1.31-2.39,2.76-3.05,4.5
		c-1.68,4.48,0.31,8.32,4.93,9.47c2.61,0.65,5.21,0.38,7.78-0.27c6.23-1.56,11.82-4.24,15.71-9.58c1.85-2.54,2.51-5.43,1.02-8.38
		c-1.4-2.78-4.06-3.45-6.91-3.59C827.18,362.17,826.72,362.19,825.68,362.19z"/>
	<path d="M542.98,255.03c-0.87-0.76-1.39-1.35-2.03-1.76c-2.26-1.49-4.7-1.76-7.16-0.62c-3.02,1.4-3.38,4.42-0.82,6.56
		c0.87,0.73,1.87,1.3,2.82,1.94c2.46,1.65,5.06,3.13,7.37,4.97c6.2,4.93,5.13,13.38-2.06,16.71c-4.06,1.88-8.19,1.91-12.21-0.11
		c-4.16-2.1-5.84-6.49-4.29-10.94c0.52,0.28,0.22,0.73,0.22,1.08c0.01,6.72,5.51,10.99,11.99,9.28c4.83-1.28,6.49-6.32,3.37-10.22
		c-0.94-1.18-2.18-2-3.41-2.83c-2.27-1.54-4.59-2.99-6.79-4.62c-3.01-2.25-3.9-5.05-2.89-8.42c0.96-3.19,3.52-5.17,7.15-5.33
		c2.05-0.09,4.11,0.03,6.16,0.14C543.55,251.02,543.54,251.05,542.98,255.03z"/>
	<path d="M270.1,526.11c0.64,1.15,0.25,2.18,0.4,3.16c0.25,1.71-0.58,2.67-1.98,3.56c-6.86,4.3-13.66,8.7-20.47,13.07
		c-0.92,0.59-1.79,1.23-2.6,2.16c8.26-0.2,16.51,1.28,25.03-0.91c0.35,0.28-0.05,1.12,0,1.84c0.04,0.66,0.17,1.36-0.38,2.17
		c-1.97-1.64-4.37-1.64-6.76-1.64c-8.1-0.01-16.2-0.01-24.3-0.05c-1.08-0.01-2.24,0.3-3.8-0.7c9.8-6.79,19.76-12.64,29.33-19.09
		c-0.41-1.19-1.36-0.72-2.03-0.73c-6.73-0.03-13.46-0.02-20.19,0c-2.25,0.01-4.52-0.03-6.61,1.82c-0.2-1.82-0.28-3.14,0.08-4.77
		c2.05,1.71,4.33,1.73,6.6,1.73c6.96,0,13.92-0.01,20.88,0.01C265.69,527.73,268.06,527.65,270.1,526.11z"/>
	<path d="M480.77,963c-2.77-0.7-5.12-0.92-7.7-2.01c1.94-1.5,2.59-3.41,3.05-5.37c1.76-7.42,3.44-14.86,5.16-22.29
		c0.44-1.89,0.81-3.77-0.71-6.05c5.15,1.05,9.72,1.86,14.09,3.38c5.51,1.92,7.8,5.79,7.05,11.34c-0.71,5.18-4.52,8.86-9.78,9.42
		c-2.53,0.27-4.98-0.12-7.44-0.71c-2.64-0.64-2.75-0.59-3.29,2.13C480.56,956.03,479.03,959.18,480.77,963z M497.74,939.32
		c0.05-1.31-0.2-2.88-1.01-4.31c-2.02-3.57-5.54-4.48-9.21-5.07c-0.92-0.15-1.17,0.6-1.32,1.24c-1.28,5.43-2.52,10.86-3.77,16.3
		c-0.25,1.09,0.16,1.58,1.26,1.95C491.32,952.01,497.73,947.57,497.74,939.32z"/>
	<path d="M338.83,845.38c-6.5,7.06-14.56,12.59-20.12,20.76c-0.86-0.64-1.77-1.62-2.75-3c2.46-0.05,4.05-1.29,5.53-2.69
		c5.55-5.26,11.08-10.55,16.6-15.85c1.41-1.36,2.68-2.83,2.74-4.97c1.24,0.11,1.62,1.22,2.41,1.8c1.67,1.21,1.62,2.74,1.16,4.56
		c-2.09,8.3-4.07,16.62-6.1,24.93c-0.13,0.54-0.47,1.06,0.1,2c5.66-6.22,12.86-10.83,17.24-18.27c0,0,0.32,0.16,0.55,0.39
		c0.72,0.72,1.42,1.47,2.44,2.54c-3.62,0.5-5.69,2.87-7.92,5c-5.38,5.11-10.74,10.25-16.15,15.33c-0.79,0.74-1.36,1.88-3.2,1.89
		c2.75-11.45,5.47-22.75,8.18-34.05C339.31,845.63,339.07,845.51,338.83,845.38z"/>
	<path d="M835.44,584.08c0,4.82,0.25,9.06-0.05,13.25c-0.6,8.29-7.19,12.67-14.58,9.88c-4.41-1.67-6.49-5.21-7.14-9.67
		c-0.26-1.79-0.2-3.64-0.23-5.47c-0.02-1.29-0.62-1.84-1.9-1.82c-3.62,0.06-7.3-0.32-10.85,1.55c0-2.44,0-4.7,0-7.34
		c2.87,1.78,5.91,1.53,8.9,1.54c6.39,0.01,12.78-0.01,19.17,0C830.95,586,833.09,585.88,835.44,584.08z M834.35,593.59
		c0.02-3.34,0.02-3.34-3.37-3.37c-1.14-0.01-2.28,0-3.43,0c-3.65,0-7.31-0.01-10.96,0.01c-0.88,0.01-1.83-0.13-2.14,1.14
		c-1.07,4.29,1.25,9.45,5.14,11.33C825.26,605.45,834.78,603.35,834.35,593.59z"/>
	<path d="M842.19,404.37c0.13,0.56,0.19,0.78,0.23,1c0.68,3.26-0.43,5.39-3.35,7.3c-6.12,3.99-11.92,8.46-17.84,12.74
		c-0.91,0.66-1.8,1.36-2.79,2.11c3.85,1.03,21.16-0.5,24.82-2.15c0.56,1.3,0.51,2.63,0.38,4.36c-2.07-1.73-4.35-1.62-6.58-1.51
		c-7.19,0.35-14.37,0.79-21.56,1.13c-2.11,0.1-4.24,0.02-6.79,0.02c1.97-2.7,4.71-3.9,6.95-5.66c2.24-1.77,4.61-3.36,6.93-5.04
		c2.41-1.74,4.81-3.48,7.22-5.22c2.31-1.67,4.61-3.34,6.87-4.98c-0.27-1.21-1.12-0.8-1.68-0.77c-7.41,0.41-14.82,0.88-22.23,1.32
		c-1.75,0.1-3.28,0.78-4.73,1.8c-0.69-1.53-0.33-2.87-0.55-4.72c1.98,1.44,3.82,1.72,5.74,1.61c8.1-0.47,16.19-0.93,24.29-1.38
		C839.26,406.22,840.77,405.51,842.19,404.37z"/>
	<path d="M631.31,158.32c-2.02-11.87-3.97-23.28-5.93-34.77c-1.25,0.34-1.28,1.23-1.57,1.89c-2.53,5.86-5.02,11.74-7.52,17.62
		c-0.99,2.32-1.91,4.65-1.44,7.34c-1.6,0.01-2.75-0.77-4.31-1.47c2.34-1.22,3.39-3.25,4.3-5.36c2.82-6.61,5.63-13.22,8.44-19.83
		c0.86-2.01,1.6-4.04,0.91-6.42c1.11-0.09,1.84,0.48,2.64,0.7c2.02,0.56,2.8,1.84,3.11,3.92c1.28,8.45,2.76,16.88,4.18,25.31
		c0.05,0.32,0.21,0.61,0.32,0.96c1.19,0.09,1.2-0.95,1.46-1.56c2.13-4.92,4.2-9.86,6.27-14.8c0.87-2.08,1.56-4.21,0.96-6.83
		c1.61,0.68,2.86,1.2,4.41,1.85c-2.58,1.42-3.59,3.73-4.58,6.03c-3.16,7.33-6.29,14.67-9.45,22
		C633.1,155.91,632.91,157.08,631.31,158.32z"/>
	<path d="M515.94,268.06c-2.46-2.04-5.24-1.56-7.94-1.62c-1.55-0.03-2.33,0.51-2.29,2.17c0.07,2.62,0.06,5.25,0,7.88
		c-0.03,1.47,0.63,2.08,2.04,2.06c2.28-0.03,4.57,0.02,6.85-0.08c2.79-0.12,4.93-1.54,6.57-3.97c0.19,0.54,0.34,0.74,0.32,0.92
		c-0.59,4.62-0.59,4.62-5.15,4.62c-5.71,0-11.42-0.01-17.12-0.03c-0.21,0-0.42-0.11-0.87-0.23c1.46-1.35,1.45-3.04,1.44-4.77
		c-0.03-6.16-0.01-12.33-0.01-18.49c0-1.69,0.19-3.41-1.33-5.3c2.84,0,5.1,0.04,7.36-0.01c1.59-0.03,3.19-0.14,4.77-0.28
		c2.3-0.21,2.3-0.24,2.45,1.99c0.04,0.56,0.01,1.13,0.01,2.3c-1.73-1.7-3.31-2.81-5.47-2.59c-1.27,0.13-1.86,0.54-1.84,1.85
		c0.04,2.85,0.04,5.71,0,8.56c-0.02,1.42,0.52,2.15,2,2.06c2.77-0.17,5.71,0.76,8.26-1.83
		C516.26,265.11,516.33,266.44,515.94,268.06z"/>
	<path d="M808.94,543.22c-1.03,0.62-2.1,1.19-3.1,1.85c-4.65,3.1-6.34,8.84-4.12,13.86c1.92,4.34,6.18,5.29,9.78,2.17
		c1.49-1.29,2.54-2.93,3.5-4.62c1.24-2.18,2.41-4.4,3.68-6.57c1.04-1.78,2.28-3.43,3.96-4.67c4.33-3.22,9.71-1.91,12.11,2.92
		c0.72,1.45,1.03,3.02,1.24,4.61c0.48,3.57-0.11,7.04-0.98,10.49c-0.37,1.47-1.16,2.09-2.67,1.99c-1.31-0.09-2.64-0.02-4.73-0.02
		c1.73-1.42,2.88-2.27,3.92-3.25c3.41-3.21,4.39-7.21,2.82-11.2c-1.73-4.38-5.94-5.24-9.24-1.87c-1.53,1.57-2.53,3.51-3.57,5.41
		c-1.41,2.61-2.69,5.29-4.51,7.66c-1.48,1.94-3.24,3.55-5.72,4.08c-3.65,0.79-6.89-0.67-9.15-3.93c-3.6-5.19-2.46-14.18-0.11-18.03
		c0.51-0.83,1.08-1.43,2.15-1.4c1.54,0.04,3.09,0.01,4.63,0.01C808.87,542.88,808.9,543.05,808.94,543.22z"/>
	<path d="M498.64,808.73c-1.95-4.52-3.36-5.1,3.32-6.82c2.82-0.72,5.62-0.73,8.45,0c6.72,1.73,8.5,7.12,4.04,12.37
		c-1.56,1.84-3.45,3.31-5.44,4.66c-1.12,0.76-2.26,1.51-3.46,2.31c3.39,1.49,8.98,1,12.47-1.11c-0.01,2.2-0.9,4.07-1.37,6.02
		c-0.2,0.82-0.82,1.03-1.55,1.03c-5.88,0-11.77,0-17.98,0c0.57-1.51,1.52-2.16,2.28-2.94c2.56-2.6,5.19-5.14,7.46-8.01
		c1.56-1.98,2.94-4.07,3.49-6.59c0.67-3.04-0.47-5.5-2.99-6.5c-2.96-1.17-6.24-0.03-7.63,2.72
		C499.29,806.76,499.02,807.73,498.64,808.73z"/>
	<path d="M249.26,704.5c-1.61,1.52-2.75,2.46-3.73,3.55c-3.65,4.06-3.85,9.89-0.56,14.16c2.73,3.54,6.71,3.63,9.57,0.21
		c1.42-1.7,2.13-3.76,2.79-5.83c0.79-2.5,1.5-5.02,2.33-7.51c0.66-1.96,1.59-3.79,3.08-5.27c3.63-3.62,8.77-3.37,11.96,0.65
		c2.21,2.78,2.93,6.13,3.4,9.54c0.06,0.45,0.07,0.91,0.08,1.37c0.04,6.61,0.84,5.86-6.47,6.9c0.97-1.21,1.84-2.2,2.61-3.25
		c2.49-3.41,3.13-7.03,1.15-10.91c-1.1-2.16-2.63-3.76-5.25-3.77c-2.48-0.01-3.96,1.52-5.05,3.52c-0.99,1.82-1.52,3.8-2.09,5.78
		c-0.79,2.73-1.47,5.51-2.69,8.1c-1.54,3.31-3.88,5.72-7.69,5.99c-3.81,0.27-6.57-1.76-8.5-4.81c-2.87-4.55-3.56-9.53-2.42-14.78
		c0.33-1.5,1.08-2.45,2.65-2.71C245.8,705.19,247.12,704.91,249.26,704.5z"/>
	<path d="M846.14,273.33c-6.75,0.03-11.94-5.09-11.96-11.8c-0.02-6.65,5.24-12.02,11.82-12.06c6.49-0.04,12.01,5.41,12.07,11.92
		C858.12,267.94,852.77,273.3,846.14,273.33z M854.29,261.34c-0.06-4.58-3.77-8.14-8.39-8.07c-4.55,0.07-8.25,3.88-8.14,8.38
		c0.11,4.47,4.02,8.25,8.45,8.16C850.7,269.71,854.35,265.88,854.29,261.34z"/>
	<path d="M216.43,814.66c-0.04-6.75,5.08-11.98,11.76-12.01c6.64-0.04,12.01,5.22,12.07,11.8c0.06,6.56-5.3,12.02-11.85,12.07
		C221.79,826.58,216.47,821.31,216.43,814.66z M228.34,822.7c4.65-0.01,8.21-3.59,8.19-8.22c-0.03-4.56-3.76-8.25-8.29-8.21
		c-4.51,0.04-8.31,3.86-8.27,8.31C220,819.09,223.74,822.71,228.34,822.7z"/>
	<path d="M462.99,929.47c-0.55-2.21-1.01-3.98-1.9-5.59c-2-3.64-5.15-5.44-9.27-5.31c-4.13,0.12-6.34,3.57-4.87,7.4
		c0.66,1.73,1.81,3.17,2.98,4.56c1.55,1.83,3.13,3.63,4.68,5.46c1.18,1.4,2.22,2.91,2.95,4.59c2.4,5.51-0.59,11.23-6.54,12.12
		c-6.49,0.96-11.81-1.62-16.31-6.15c-0.88-0.88-1.2-1.9-0.6-3.11c0.63-1.26,0.73-2.8,2.13-4.14c0.17,1.37,0.23,2.35,0.41,3.31
		c0.97,5.23,5.08,8.91,10.39,9.34c5.69,0.46,8.8-3.98,6.4-9.14c-0.87-1.88-2.19-3.47-3.51-5.04c-1.62-1.92-3.22-3.85-4.78-5.82
		c-0.93-1.17-1.63-2.49-2.11-3.9c-1.79-5.22,1.24-10.33,6.71-10.75c5.78-0.44,10.58,2.24,15.02,5.64c0.63,0.48,0.74,1.16,0.45,1.84
		C464.61,926.21,464.37,927.82,462.99,929.47z"/>
	<path d="M782.64,255.06c0.59-1.94,1.01-3.1,1.3-4.3c1.04-4.38,0.11-8.17-3.56-11.02c-3.99-3.08-8.39-1.31-9.08,3.66
		c-0.3,2.15-0.11,4.33,0.2,6.48c0.47,3.28,0.84,6.58,0.47,9.89c-0.72,6.54-6.6,9.94-12.51,7.03c-5.78-2.84-8.61-7.91-9.7-14.08
		c-0.24-1.35,0.07-2.44,1.38-3.18c1.16-0.66,2.24-1.47,3.97-2.63c-0.85,1.98-1.48,3.27-1.95,4.62c-1.76,5,0.16,10.39,4.61,13.13
		c4.17,2.57,8.34,0.79,9.35-4.03c0.76-3.65,0-7.28-0.36-10.9c-0.25-2.52-0.39-5,0.28-7.48c1.51-5.65,7.2-8.07,12.08-4.93
		c4.65,2.98,7.05,7.63,8.68,12.75c0.29,0.92-0.01,1.52-0.77,2.02C785.79,252.9,784.58,253.74,782.64,255.06z"/>
	<path d="M807.65,283c-0.94,1.13-1.6,2-2.34,2.81c-5.85,6.38-11.73,12.74-17.58,19.14c-1.84,2.02-3.75,4.02-4.37,7.07
		c-1.33-0.86-1.56-2.24-2.18-3.33c-0.67-1.18-1.22-2.43-1.92-3.83c3.9-0.42,5.63-3.46,7.84-5.91c0.69-0.76,0.36-1.44-0.02-2.18
		c-1.44-2.85-2.89-5.69-4.26-8.57c-0.6-1.27-1.49-1.56-2.77-1.29c-3,0.62-5.76,1.55-7.06,5.46c-1.34-2.67-2.45-4.87-3.83-7.63
		c3.41,1.42,6.32,1.35,9.27,1.01c8.04-0.91,16.08-1.76,24.12-2.62C804.09,282.96,805.63,282.68,807.65,283z M783.31,286.44
		c1.61,3.89,3.32,7.23,5.35,10.79c3.98-4.29,7.66-8.24,11.33-12.2c-0.12-0.19-0.25-0.38-0.37-0.57
		C794.36,285.1,789.1,285.74,783.31,286.44z"/>
	<path d="M522.34,970.53c-2.9-0.28-5.45-0.52-8.57-0.82c3.66-2.66,5.14-6.24,6.8-9.7c3.3-6.88,6.59-13.77,9.9-20.65
		c0.49-1.01,0.81-2.13,1.77-3.1c0.7,0.64,0.84,1.48,1.07,2.3c2.29,8.23,4.57,16.46,6.89,24.68c0.89,3.16,1.66,6.4,4.43,9.25
		c-3.17-0.27-5.81-0.49-8.7-0.73c1.85-3.48,0.16-6.51-0.7-9.62c-0.2-0.74-0.72-1.13-1.48-1.2c-3.52-0.34-7.03-0.68-10.55-1.03
		c-0.96-0.1-1.46,0.41-1.79,1.23C520.15,964.31,519.25,967.44,522.34,970.53z M534.42,959.57c-1.46-5.4-2.66-10.62-4.39-15.69
		c-0.23,0.02-0.47,0.03-0.7,0.05c-2.22,4.81-4.45,9.63-6.83,14.79C526.74,959.07,530.39,959.88,534.42,959.57z"/>
	<path d="M250.12,746.71c3.55,2.18,6.91,2.02,10.19,2.05c8.09,0.09,16.19,0.07,24.28,0.13c1.09,0.01,2.25-0.31,3.44,0.48
		c-0.31,0.91-1.13,1.37-1.77,1.93c-6.09,5.33-12.21,10.63-18.3,15.96c-2.73,2.39-5.7,4.56-7.25,8.56c-1.1-2.97-2.01-5.4-3-8.05
		c3.98,0.09,6.05-2.8,8.51-5.03c0.71-0.64,0.44-1.48,0.16-2.23c-1.1-2.99-2.25-5.97-3.3-8.98c-0.46-1.34-1.29-1.78-2.6-1.54
		c-3.03,0.56-6.27,0.78-7.33,4.83C251.89,752.19,250.95,749.76,250.12,746.71z M267.77,760.81c3.25-1.8,11.09-8.69,12.31-10.72
		c-5.31,0-10.66,0-16.29,0C265.02,753.95,266.26,757.41,267.77,760.81z"/>
	<path d="M800.67,655.66c0-3.16,0-5.65,0-8.4c3.4,1.14,6.18-0.5,9.07-1.64c1.01-0.4,1.37-1.08,1.36-2.1
		c-0.02-3.31-0.06-6.62,0.02-9.93c0.03-1.34-0.7-1.85-1.76-2.11c-2.94-0.7-5.86-1.15-8.61,1.44c0-2.67,0-4.98,0-7.76
		c3.06,3.08,6.7,4.28,10.3,5.6c7.17,2.63,14.33,5.31,21.47,8.01c1.02,0.39,2.26,0.44,2.95,1.56c-1.04,1.01-2.41,1.24-3.64,1.71
		c-7.87,3.03-15.78,5.99-23.66,8.99C805.61,652,803.05,652.98,800.67,655.66z M812.41,644.54c5.41-2.02,10.52-3.93,15.63-5.84
		c-0.02-0.21-0.05-0.42-0.07-0.63c-5.11-1.81-10.22-3.63-15.56-5.52C812.41,636.62,812.41,640.33,812.41,644.54z"/>
	<path d="M590.37,105.79c0.69,6.74,1.17,13.1,2.04,19.4c0.84,6.1,0.14,12.49,3.44,18.48c-2.9-0.76-5.51-1.44-8.34-2.19
		c2.59-3.19,1.29-6.62,0.91-9.96c-0.11-0.97-1.09-1.1-1.83-1.3c-2.96-0.82-5.96-1.51-8.91-2.38c-1.51-0.45-2.35,0.06-3.01,1.36
		c-1.37,2.7-2.65,5.37-0.37,8.57c-2.72-0.29-5.02-1.24-7.44-1.8c8.39-7.85,13.59-18.05,20.54-26.91
		C588.16,108.08,588.64,106.88,590.37,105.79z M586.64,113.04c-0.24-0.08-0.48-0.16-0.72-0.24c-3.06,4.43-6.11,8.86-9.42,13.66
		c4.08,0.94,7.59,2.35,11.72,2.77C587.67,123.61,587.15,118.32,586.64,113.04z"/>
	<path d="M235.66,509.35c0-3.41,0-5.9,0-8.53c3.61,1.28,6.49-0.6,9.5-1.82c0.96-0.39,0.92-1.21,0.92-2c0.01-3.2-0.03-6.39,0.02-9.59
		c0.02-1.37-0.54-2.02-1.88-2.38c-2.98-0.78-5.83-1.12-8.5,1.58c0-2.7,0-5.04,0-7.78c4.24,4,9.6,5.15,14.61,7.07
		c6.7,2.56,13.43,5.05,20.3,7.63c-0.81,1.37-2.15,1.45-3.23,1.87c-7.87,3.03-15.78,5.97-23.66,8.99
		C241.01,505.45,238.18,506.38,235.66,509.35z M262.78,491.61c-5.04-1.78-10.07-3.57-15.32-5.42c0,4.2,0,7.88,0,11.86
		C252.8,496.18,257.85,494.39,262.78,491.61z"/>
	<path d="M568.06,279.95c-2.85,0-5.58,0-8.59,0c0.91-1.33,1.42-2.59,1.41-4.1c-0.07-6.85-0.01-13.69-0.04-20.54
		c-0.01-2.64-0.07-2.66-2.65-2.72c-1.6-0.04-3.19-0.03-4.79,0c-4.79,0.07-6.2,1.35-6.74,6.1c-1.7-3.12-0.33-6.26,3.29-7.17
		c1.41-0.36,2.94-0.32,4.42-0.36c6.95-0.2,13.92,0.39,20.86-0.39c1.37-0.15,1.89,0.37,1.8,1.7c-0.05,0.67-0.01,1.35-0.01,2.61
		c-2.53-3.1-5.58-2.43-8.49-2.48c-1.37-0.02-1.74,0.72-1.73,1.94c0.02,7.3,0.04,14.61-0.03,21.91
		C566.76,277.79,567.67,278.69,568.06,279.95z"/>
	<path d="M270.3,462.78c-2.42-2.9-5.26-4.06-8.14-5.13c-7.9-2.94-15.81-5.87-23.7-8.84c-1.03-0.39-2.23-0.5-3.19-1.68
		c0.97-0.42,1.84-0.82,2.72-1.16c8.2-3.13,16.4-6.24,24.59-9.38c2.66-1.02,5.35-1.97,7.79-4.99c0.16,3.44,0.11,6.08,0.05,9.05
		c-1.34-0.79-2.58-1.14-3.92-0.64c-7.88,2.96-15.77,5.9-23.99,8.97c2.03,1.4,4.02,1.82,5.89,2.49c4.51,1.6,8.89,3.58,13.59,4.59
		c3.13,0.68,6.19,0.83,8.29-3.14C270.3,456.38,270.3,459.26,270.3,462.78z"/>
	<path d="M556.15,98.55c-3.45,2-4.88,4.86-6.32,7.68c-3.79,7.42-7.51,14.87-11.3,22.29c-0.5,0.98-0.76,2.15-2.06,3.02
		c-0.39-1.23-0.8-2.34-1.09-3.49c-2.09-8.18-4.14-16.37-6.25-24.54c-0.74-2.86-1.35-5.79-4.18-8.5c3.37,0.35,5.99,0.61,8.97,0.92
		c-1.03,1.46-1.33,2.79-0.9,4.45c2.06,7.83,3.94,15.7,5.87,23.49c0.88,0.14,1.11-0.38,1.37-0.89c2.27-4.6,4.56-9.2,6.82-13.81
		c0.45-0.92,0.83-1.88,1.16-2.85c1.3-3.84,1.12-5.24-1.05-8.59C549.99,97.48,552.65,98.16,556.15,98.55z"/>
	<path d="M252.85,648.88c4.47,2.34,8.4,4.82,12.76,6.53c1.85,0.73,3.29,0.15,4.77-1.45c0,2.46,0,4.47,0,6.93
		c-5.05-4.51-10.96-6.93-16.42-10.13c-1.85-1.08-3.75-1.55-5.86-1.47c-2.05,0.08-4.11-0.04-6.17,0.03c-2.05,0.07-4.1,0.24-6.17,1.59
		c0-2.59,0-4.9,0-7.23c5.04,2.16,10.3,1.11,15.47,1.21c0.41,0.01,0.85-0.3,1.24-0.53c5.89-3.41,12.27-6.01,17.78-10.74
		c0,2.93,0,5.57,0,8.61c-1.89-1.77-3.66-0.97-5.42-0.1C260.88,644.12,256.99,646.22,252.85,648.88z"/>
	<path d="M709.1,164.01c-1.19,1.68-2.36,3.32-3.53,4.97c0.68-4.48-1.3-7.32-4.82-9.34c-1.07,0.09-1.33,0.95-1.76,1.56
		c-4.69,6.61-9.38,13.23-14.02,19.87c-1.35,1.93-2.83,3.85-2.35,7.1c-2.57-1.83-4.57-3.25-7.14-5.08c2.62-0.27,3.88-1.67,4.97-3.18
		c5.14-7.14,10.18-14.33,15.36-21.44c1.09-1.5,0.51-2.16-0.73-2.94c-2.53-1.58-4.35-1.64-9.07,0.1c1.46-2.08,2.59-3.68,3.76-5.35
		C696.05,155.03,702.33,159.5,709.1,164.01z"/>
	<path d="M724.13,176.18c2.35,2.18,4.24,3.93,6.53,6.05c-1.51,0.39-2.77,0.59-3.23,1.89c-1.71,4.82-2.92,9.76-3.91,15.33
		c4.79-1.6,9.14-2.83,13.23-4.78c1.64-0.79,2.65-2.04,2.24-4.66c2,1.82,3.47,3.16,5.24,4.77c-7.35,0.82-13.59,3.66-20.05,5.72
		c-0.33,0.1-0.74,0.13-0.96,0.34c-3.77,3.75-8.04,7.1-10.06,12.47c-1.86-1.21-3.4-3.02-5.36-4.76c5.13-2.01,7.79-6.55,11.4-10.03
		c0.52-0.5,0.6-1.22,0.76-1.88c1.24-4.98,2.53-9.95,3.68-14.96C723.99,180.17,723.93,178.54,724.13,176.18z"/>
	<path d="M235.74,601.98c2.19,1.24,4.43,1.54,6.72,1.55c8.11,0.04,16.22,0.06,24.34,0.04c2.5-0.01,2.68-0.29,2.51-2.79
		c-0.19-2.9-1.73-4.86-4.24-6.02c0.04-0.81,0.56-0.77,0.98-0.79c4.5-0.24,4.47-0.24,4.46,4.36c0,5.83-0.01,11.65,0.13,17.48
		c0.03,1.39-0.36,1.84-1.66,1.8c-1.42-0.05-2.84-0.01-4.39-0.3c3.33-1.65,4.84-4.17,4.77-7.73c-0.03-1.31-0.49-1.82-1.81-1.81
		c-9.14,0.06-18.28,0.08-27.42,0.12c-1.52,0.01-2.88,0.57-4.32,1.58C235.38,606.85,235.51,604.52,235.74,601.98z"/>
	<path d="M284.85,808.9c-0.25,0.28-0.3,0.39-0.36,0.4c-2.12,0.43-4.57,1.72-6.28,0.87c-1.47-0.74-2.01-3.35-2.96-5.14
		c-2.25-4.22-4.49-8.43-6.95-13.06c3.41,0.32,5.93-1.17,8.48-2.52c5.14-2.72,10.28-5.43,15.38-8.21c2.57-1.4,5.35-2.54,6.86-5.79
		c1.34,2.57,2.43,4.67,3.78,7.25c-2.84-0.59-4.88,0.37-6.88,1.42c-7.26,3.83-14.51,7.66-21.76,11.51c-2.08,1.11-2.07,1.15-0.99,3.28
		c0.46,0.91,0.97,1.81,1.48,2.7C276.9,805.59,279.93,808.49,284.85,808.9z"/>
	<path d="M791.93,332.59c1.8,5.62,3.23,11.37,9.63,13.54c0.12,0.37,0.01,0.53-0.3,0.54c-1.82,0.04-3.91,0.63-5.4-0.06
		c-1.6-0.73-1.34-3.18-1.95-4.85c-1.71-4.71-3.25-9.49-4.99-14.63c3.73,0.78,6.81-0.64,9.97-1.7c5.52-1.86,11.03-3.71,16.53-5.62
		c2.36-0.82,4.8-1.58,6.27-4.11c1.11,2.46,1.9,4.81,2.7,7.91c-2.22-1.49-4.08-0.83-5.88-0.24c-8.45,2.78-16.88,5.64-25.31,8.48
		C792.77,332,792.41,332.3,791.93,332.59z"/>
	<path d="M571.15,831c0.72-1.47,1.38-2.9,2.1-4.29c2.8-5.48,5.52-10.99,7.78-16.72c0.9-2.29,0.77-2.47-1.77-2.51
		c-2.96-0.05-5.93,0.05-8.89-0.03c-1.4-0.04-2.63,0.47-3.87,0.9c-0.45-0.71-0.26-1.4-0.18-2.07c0.39-3.63,0.4-3.64,4.14-3.64
		c5.11-0.01,10.21,0,15.27,0c0.37,1.67-0.45,2.72-0.91,3.85c-2.89,7.07-5.72,14.15-7.91,21.47
		C575.8,831.69,575.75,831.67,571.15,831z"/>
	<path d="M655.7,170.4c-2.58-0.94-4.59-2.39-7.04-3.77c2.55-0.88,3.77-2.77,4.89-4.74c3.59-6.35,7.15-12.72,10.72-19.09
		c1.02-1.81,1.85-3.67,1.44-6.09c2.64,0.65,4.55,2.22,7.22,3.62c-2.83,0.92-3.97,2.96-5.11,4.96c-3.5,6.14-6.94,12.32-10.4,18.49
		C656.32,165.75,655.33,167.77,655.7,170.4z"/>
	<path d="M270.43,569.13c0,2.83,0,5.09,0,7.7c-3.04-1.89-6.28-1.75-9.51-1.75c-5.92,0.01-11.84,0.02-17.76,0
		c-2.52-0.01-4.98,0.23-7.4,1.58c-0.34-2.51-0.29-4.83-0.01-7.46c2.36,1.64,4.85,1.68,7.36,1.67c6.6-0.02,13.21-0.03,19.81,0.01
		C265.43,570.89,267.88,570.73,270.43,569.13z"/>
	<path d="M553.41,802.71c2.41,0,4.76,0,7.14,0c-1.13,4.59-0.77,21.76,0.51,24.41c-2.65,0-5.25,0-7.99,0
		c1.87-3.95,0.84-8.11,0.9-12.16C554.05,810.93,554.6,806.85,553.41,802.71z"/>
	<path d="M897.4,802.67c-0.65-0.15-1.31-0.25-1.95-0.44c-2.32-0.68-2.71-2.09-1.12-3.96c1.74-2.06,5.08-2.47,7.43-0.93
		c2.73,1.79,3.71,5.56,2.18,8.42c-1.37,2.57-4.36,3.76-6.95,2.68c-0.71-0.3-1.38-0.8-1.92-1.36c-0.72-0.75-1.2-1.7-0.83-2.79
		c0.38-1.13,1.4-0.93,2.29-0.99c0.33-0.02,0.64-0.15,0.96-0.23C897.47,802.94,897.44,802.81,897.4,802.67z"/>
	<path d="M177.62,270.62c0.99,0.96,1.86,0.8,2.59,1.08c2.01,0.75,2.39,1.88,1.11,3.57c-1.4,1.86-4.23,2.58-6.49,1.66
		c-2.67-1.09-4.32-4.05-3.86-6.94c0.56-3.52,3.55-5.65,6.9-4.93c1.43,0.3,2.54,1.07,3.23,2.32c0.99,1.77,0.3,2.9-1.81,3.13
		C178.85,270.55,178.41,270.57,177.62,270.62z"/>
	<path d="M243.85,273.97c-0.04,2.18-1.49,4.06-3.69,4.77c-2.37,0.77-4.92,0.03-6.44-1.87c-1.44-1.79-1.7-3.96-0.6-5.69
		c0.62-0.97,1.4-1.9,2.69-1.77c1.06,0.1,1.39,1.07,1.64,1.95c0.35,1.22,0.85,2.1,1.96,0.67c0.72-0.93,1.28-2.01,2.67-1.42
		C243.53,271.22,243.88,272.52,243.85,273.97z"/>
	<path d="M831.59,803.66c0.01-3.43,2.79-5.89,5.92-5.73c3.25,0.17,5.92,3.13,5.46,6.1c-0.1,0.65-0.36,1.32-0.71,1.88
		c-1.25,1.98-2.79,1.89-3.99-0.18c-1.04-1.79-1.27-1.89-2.18-0.52c-0.69,1.04-1.33,1.96-2.66,1.34
		C832.06,805.92,831.6,804.64,831.59,803.66z"/>
	<path d="M417.1,158.81c0.26-0.49-0.01-0.86-0.25-1.23c-0.5-0.78-1.04-1.58-0.22-2.45c0.75-0.79,1.67-1.07,2.78-0.81
		c2.01,0.48,3.52,2.14,3.81,4.3c0.29,2.2-1.02,4.54-3.12,5.56c-2.09,1.01-4.12,0.73-5.63-0.8c-0.56-0.57-1-1.21-1.15-2.04
		c-0.29-1.69,0.35-2.45,2.16-2.48C416.02,158.86,416.58,159.18,417.1,158.81z"/>
	<path d="M664.75,927.57c0.04,0.39,0,0.64,0.1,0.82c0.52,0.96,1.61,1.86,0.5,3.02c-1.11,1.17-2.54,0.99-3.81,0.42
		c-1.8-0.81-2.72-2.33-2.8-4.35c-0.09-2.29,0.88-4.02,2.83-5.08c1.7-0.92,3.52-0.96,5.19,0.17c1.3,0.89,2.16,2.12,1.69,3.77
		C667.89,928.33,666.1,927,664.75,927.57z"/>
	<path d="M740.29,1067.31c0.07,2.51-0.92,4.2-2.92,5.24c-1.88,0.97-3.74,0.84-5.46-0.45c-1.54-1.16-2.21-3.15-1.68-4.86
		c0.6-1.94,2.05-2.35,3.4-0.79c0.89,1.03,1.49,1.3,2.36,0.14c0.2-0.27,0.47-0.49,0.72-0.72c0.73-0.66,1.59-0.93,2.52-0.62
		C740.34,1065.62,740.19,1066.66,740.29,1067.31z"/>
	<path d="M349.26,15.19c-0.03-2.59,1.56-4.66,3.99-5.22c2.65-0.61,4.89,0.45,5.91,2.76c0.54,1.23,0.54,2.42-0.1,3.59
		c-0.83,1.48-2.15,1.72-3.15,0.27c-0.96-1.39-1.59-1.35-2.56-0.21c-0.22,0.26-0.49,0.49-0.78,0.66
		C350.57,18.23,349.28,17.51,349.26,15.19z"/>
</g>
</svg>
